<?xml version="1.0" encoding="UTF-8"?>
<svg width="45px" height="40px" viewBox="0 0 45 40" version="1.1" xmlns="http://www.w3.org/2000/svg" xmlns:xlink="http://www.w3.org/1999/xlink">
    <!-- Generator: Sketch 63.1 (92452) - https://sketch.com -->
    <title>Group 10</title>
    <desc>Created with Sketch.</desc>
    <defs>
        <polygon id="path-1" points="0.0003 0.443150339 44.4163 0.443150339 44.4163 35 0.0003 35"></polygon>
    </defs>
    <g id="Page-1" stroke="none" stroke-width="1" fill="none" fill-rule="evenodd">
        <g id="Desktop-HD-Copy-29" transform="translate(-154.000000, -555.000000)">
            <g id="Group-10" transform="translate(154.000000, 555.000000)">
                <g id="Group-3" transform="translate(0.000000, 4.525100)">
                    <mask id="mask-2" fill="white">
                        <use xlink:href="#path-1"></use>
                    </mask>
                    <g id="Clip-2"></g>
                    <path d="M39.3323,5.7612 C39.1213,5.3712 38.8353,5.0382 38.4833,4.7702 C33.0363,0.6252 27.6983,0.4492 27.4583,0.443150339 C26.3483,0.4372 25.3533,0.9752 24.7753,1.8862 L24.6043,2.1562 C22.9993,2.0242 21.3853,2.0222 19.7893,2.1492 C19.2443,1.0672 18.1443,0.4142 16.9423,0.4442 C16.7173,0.4492 11.3793,0.6252 5.9333,4.7702 C5.5803,5.0382 5.2953,5.3712 5.0843,5.7612 C4.8763,6.1432 0.0003,15.2622 0.0003,26.6272 C0.0003,27.2912 0.2183,27.9502 0.6153,28.4822 C0.7833,28.7082 4.8223,34.0132 12.7343,34.9772 C12.8603,34.9922 12.9863,35.0002 13.1113,35.0002 C14.1163,35.0002 15.0633,34.5102 15.6463,33.6882 C15.6563,33.6742 16.5133,32.4652 17.3313,31.3742 C17.4003,31.3872 17.4703,31.3992 17.5363,31.4102 C20.7863,32.0552 24.0193,32.0782 27.1323,31.4782 C27.1443,31.4762 27.1573,31.4732 27.1693,31.4712 C27.9543,32.5232 28.7503,33.6602 28.7603,33.6742 C29.4023,34.5942 30.4973,35.0942 31.6133,34.9842 C40.0613,34.1402 43.7673,28.5492 43.9213,28.3102 C44.2453,27.8072 44.4163,27.2252 44.4163,26.6272 C44.4163,15.2712 39.5403,6.1442 39.3323,5.7612" id="Fill-1" fill="#211256" mask="url(#mask-2)"></path>
                </g>
                <path d="M29.1643,33.4875 C30.1283,34.7365 31.3053,36.4205 31.3053,36.4205 C38.3683,35.7145 41.3113,31.1525 41.3113,31.1525 C41.3113,20.4545 36.6023,11.7655 36.6023,11.7655 C31.8933,8.1815 27.3983,8.0725 27.3983,8.0725 L26.9173,8.8335 C32.4823,10.5705 35.0513,13.0695 35.0513,13.0695 C31.6803,11.1685 28.3613,10.2455 25.2583,9.8645 C22.9033,9.5935 20.6563,9.6485 18.6233,9.9195 C18.4083,9.9195 18.2483,9.9735 18.0883,9.9735 C16.9643,10.0825 14.1823,10.5165 10.6493,12.0915 C9.4193,12.6345 8.7233,13.0695 8.7233,13.0695 C8.7233,13.0695 11.4523,10.4625 17.3393,8.7245 L17.0183,8.0725 C17.0183,8.0725 12.5223,8.1815 7.8133,11.7655 C7.8133,11.7655 3.1043,20.4545 3.1043,31.1525 C3.1043,31.1525 6.4223,35.6055 13.1113,36.4205 C13.1113,36.4205 14.3423,34.6825 15.3053,33.4335 C11.1313,32.1845 9.5793,29.5235 9.5793,29.5235 C9.5793,29.5235 9.9003,29.7405 10.4893,30.0665 C10.5433,30.1205 10.5433,30.1205 10.5963,30.1745 C10.7033,30.2295 10.8103,30.2835 10.9173,30.3385 C11.7203,30.8265 12.5763,31.1525 13.3253,31.4785 C14.6633,32.0215 16.2683,32.5645 18.1413,32.8905 C20.6023,33.3795 23.4923,33.5425 26.5963,32.9445 C28.1473,32.6735 29.6993,32.2385 31.3583,31.5325 C32.4823,31.0985 33.7673,30.4465 35.1043,29.5775 C35.0513,29.5775 33.4453,32.2935 29.1643,33.4875 M16.1073,28.0575 C14.2883,28.0575 12.7903,26.3735 12.7903,24.3645 C12.7903,22.3555 14.2883,20.6715 16.1073,20.6715 C17.9803,20.6715 19.4783,22.3555 19.4263,24.3645 C19.4263,26.3735 17.9273,28.0575 16.1073,28.0575 M28.0413,28.0575 C26.2223,28.0575 24.7233,26.3735 24.7233,24.3645 C24.7233,22.3555 26.2223,20.6715 28.0413,20.6715 C29.9133,20.6715 31.3583,22.3555 31.3583,24.3645 C31.3583,26.3735 29.9133,28.0575 28.0413,28.0575" id="Fill-4" fill="#6916A5"></path>
                <path d="M39.3323,5.3181 C39.1213,4.9291 38.8353,4.5951 38.4833,4.3271 C33.0363,0.1821 27.6983,0.0061 27.4583,0.0011 C26.3483,-0.0059 25.3533,0.5321 24.7753,1.4441 L24.6043,1.7131 C22.9993,1.5811 21.3853,1.5791 19.7893,1.7061 C19.2443,0.6251 18.1443,-0.0279 16.9423,0.0011 C16.7173,0.0061 11.3793,0.1821 5.9333,4.3271 C5.5803,4.5951 5.2953,4.9281 5.0843,5.3181 C4.8763,5.7011 0.0003,14.8191 0.0003,26.1841 C0.0003,26.8481 0.2183,27.5071 0.6153,28.0401 C0.7833,28.2651 4.8223,33.5701 12.7343,34.5341 C12.8603,34.5491 12.9863,34.5571 13.1113,34.5571 C14.1163,34.5571 15.0633,34.0671 15.6463,33.2451 C15.6563,33.2321 16.5133,32.0221 17.3313,30.9311 C17.4003,30.9441 17.4703,30.9561 17.5363,30.9681 C20.7863,31.6121 24.0193,31.6351 27.1323,31.0351 C27.1443,31.0331 27.1573,31.0301 27.1693,31.0281 C27.9543,32.0811 28.7503,33.2171 28.7603,33.2311 C29.4023,34.1521 30.4973,34.6511 31.6133,34.5421 C40.0613,33.6971 43.7673,28.1061 43.9213,27.8671 C44.2453,27.3641 44.4163,26.7821 44.4163,26.1841 C44.4163,14.8281 39.5403,5.7011 39.3323,5.3181" id="Fill-6" fill="#211256"></path>
                <path d="M29.1643,28.5197 C30.1283,29.7687 31.3053,31.4527 31.3053,31.4527 C38.3683,30.7467 41.3113,26.1847 41.3113,26.1847 C41.3113,15.4867 36.6023,6.7977 36.6023,6.7977 C31.8933,3.2137 27.3983,3.1047 27.3983,3.1047 L26.9173,3.8657 C32.4823,5.6027 35.0513,8.1017 35.0513,8.1017 C31.6803,6.2007 28.3613,5.2777 25.2583,4.8967 C22.9033,4.6257 20.6563,4.6797 18.6233,4.9517 C18.4083,4.9517 18.2483,5.0057 18.0883,5.0057 C16.9643,5.1147 14.1823,5.5487 10.6493,7.1237 C9.4193,7.6667 8.7233,8.1017 8.7233,8.1017 C8.7233,8.1017 11.4523,5.4947 17.3393,3.7567 L17.0183,3.1047 C17.0183,3.1047 12.5223,3.2137 7.8133,6.7977 C7.8133,6.7977 3.1043,15.4867 3.1043,26.1847 C3.1043,26.1847 6.4223,30.6377 13.1113,31.4527 C13.1113,31.4527 14.3423,29.7147 15.3053,28.4657 C11.1313,27.2167 9.5793,24.5557 9.5793,24.5557 C9.5793,24.5557 9.9003,24.7727 10.4893,25.0987 C10.5433,25.1527 10.5433,25.1527 10.5963,25.2067 C10.7033,25.2617 10.8103,25.3157 10.9173,25.3697 C11.7203,25.8587 12.5763,26.1847 13.3253,26.5107 C14.6633,27.0537 16.2683,27.5967 18.1413,27.9227 C20.6023,28.4107 23.4923,28.5737 26.5963,27.9767 C28.1473,27.7057 29.6993,27.2707 31.3583,26.5647 C32.4823,26.1297 33.7673,25.4787 35.1043,24.6097 C35.0513,24.6097 33.4453,27.3247 29.1643,28.5197 M16.1073,23.0887 C14.2883,23.0887 12.7903,21.4057 12.7903,19.3967 C12.7903,17.3877 14.2883,15.7037 16.1073,15.7037 C17.9803,15.7037 19.4783,17.3877 19.4263,19.3967 C19.4263,21.4057 17.9273,23.0887 16.1073,23.0887 M28.0413,23.0887 C26.2223,23.0887 24.7233,21.4057 24.7233,19.3967 C24.7233,17.3877 26.2223,15.7037 28.0413,15.7037 C29.9133,15.7037 31.3583,17.3877 31.3583,19.3967 C31.3583,21.4057 29.9133,23.0887 28.0413,23.0887" id="Fill-8" fill="#4CE0AA"></path>
            </g>
        </g>
    </g>
</svg>