<?xml version="1.0" encoding="UTF-8"?><svg id="Camada_1" xmlns="http://www.w3.org/2000/svg" viewBox="0 0 100 70"><defs><style>.cls-1{fill:#f8bbff;}.cls-1,.cls-2,.cls-3,.cls-4,.cls-5,.cls-6,.cls-7,.cls-8,.cls-9,.cls-10{fill-rule:evenodd;}.cls-2{fill:#4ce0aa;}.cls-3{fill:#211256;}.cls-4{fill:#e1feff;}.cls-5{fill:#88ffd7;}.cls-6{fill:#e639ff;}.cls-7{fill:#fff;}.cls-8{fill:#ea267f;}.cls-9{fill:#ffd15f;}.cls-10{fill:#00beea;}</style></defs><g id="Page-1"><g id="inicial-copy-65"><g id="Group-69"><g id="Group-67"><path id="Fill-1" class="cls-7" d="m86.84,23.6c.85-4.88-1.88-9.2-4.96-11.32-1.66-1.17-3.58-1.81-5.56-1.83-2.21,0-4.35.84-6.04,2.39l-.49.47-8.48,14.32c-.37.62-1.23.63-1.62.03l-13.7-21.62c-.26-.41-.76-.56-1.19-.36l-1.4.65-.4-.51c-1.91-2.36-4.22-3.72-6.53-3.82-1.27-.08-2.54.23-3.65.9-1.49.89-2.64,2.36-3.2,4.11l-.31.92-.83-.4c-.88-.43-1.83-.68-2.79-.73-1.27-.08-2.54.23-3.66.9-2.44,1.45-3.84,4.36-3.72,7.79.02.53.07,1.07.15,1.59l.12.73-1.04.44c-.22.09-.4.27-.5.49l-3.95,8.61c-.12.27-.12.58,0,.85l18.14,38.37c.24.5.83.7,1.31.44l15.94-8.73c.68-.37,1.49.2,1.4.99l-.92,7.61c-.1.85.83,1.42,1.51.92l17.09-12.69c.1-.07.18-.16.24-.27l18.87-30.18.19-1.07Z"/><path id="Fill-3" class="cls-3" d="m44.57,8.58l-2.16,1.01c-1.59-3-3.91-4.9-6.15-5-.8-.04-1.59.16-2.3.57-1.6.95-2.47,2.87-2.39,5.26.06,1.32.34,2.62.83,3.83l-.7.32c-1.58-3.1-3.97-5.09-6.24-5.19-.8-.05-1.59.15-2.29.57-1.6.95-2.48,2.87-2.39,5.26.07,1.4.38,2.76.91,4.04l-2.72,1.15-3.29,7.17,17.03,36.03,29.16-15.99.26-.14,3.07-6.38L44.57,8.58Z"/><path id="Fill-5" class="cls-2" d="m18.09,27.28l15.44,32.71,26.97-14.59,1.84-4.25S29.6,17.35,29.23,17.35s-8.96,5.1-8.96,5.1l-2.18,4.83Z"/><polygon id="Fill-7" class="cls-5" points="43.66 11.43 21.02 22 36.04 52.61 62.02 40.35 43.66 11.43"/><path id="Fill-9" class="cls-10" d="m57.1,32.02l-6.32,11.17-1.13,7.91s11.86-5.69,12.38-6.49c.51-.8-2.18-9.79-2.18-9.79l-2.74-2.8Z"/><path id="Fill-11" class="cls-3" d="m44.12,9.7l-.98.45-22.61,10.58-1.28.6.65,1.33,15.02,30.61.55,1.13,1.08-.51,25.98-12.26,1.42-.67-.88-1.38-18.37-28.92-.59-.93v-.02Zm-.45,1.72l18.36,28.92-25.98,12.26-15.01-30.59,22.64-10.59Z"/><path id="Fill-13" class="cls-3" d="m27.64,20.34c1.18-.88,2.89-.4,3.82,1.07.93,1.48.74,3.39-.44,4.27-1.18.88-2.89.4-3.82-1.07-.93-1.47-.74-3.39.44-4.27"/><path id="Fill-15" class="cls-6" d="m31,19.74c-.09-1.46-.49-2.88-1.15-4.16-1.22-2.44-3.02-4.06-4.58-4.13-.42-.02-.84.08-1.21.3-.91.53-1.38,1.68-1.32,3.19.09,1.46.48,2.87,1.14,4.14l.09.19,1.81-.68-.11-.21-.07-.12s-.05-.09-.07-.13c-.53-1-.85-2.11-.93-3.26,0-.83.17-1.24.36-1.36.07-.04.16-.06.24-.05.74.03,2.08,1.19,3.02,3.07.53,1,.84,2.11.92,3.25.03.83-.16,1.25-.35,1.36l-.29.13.07.33c.14.41.28.83.43,1.24l.12.32.3-.13h.06c.07-.02.13-.05.2-.09.9-.54,1.37-1.67,1.32-3.21"/><path id="Fill-17" class="cls-3" d="m29.67,22.95h0c-.1,0-.49-.1-.89-.76-.14-.33-.14-.7,0-1.03.19-.11.38-.53.35-1.36-.08-1.15-.4-2.26-.92-3.25-.94-1.88-2.28-3.04-3.02-3.07h-.03c-.07,0-.15.02-.21.05-.19.11-.38.53-.36,1.36.08,1.15.4,2.26.93,3.26.02.05.05.09.07.13l.07.12.11.21-1.82.69-.09-.19c-.66-1.27-1.05-2.69-1.14-4.14-.05-1.54.42-2.66,1.32-3.19.34-.2.72-.3,1.1-.3h.11c1.56.07,3.36,1.69,4.58,4.13.67,1.27,1.06,2.69,1.15,4.16.06,1.51-.41,2.65-1.31,3.19h0Zm1.19-7.98c-1.44-2.87-3.56-4.69-5.55-4.78h-.16c-.58,0-1.16.15-1.67.46-1.29.77-1.98,2.37-1.93,4.37.1,1.65.54,3.26,1.29,4.7l.09.19.26.53c1.23-.58,2.5-1.06,3.76-1.59.09-.03.18-.03.27,0l-.49-.85-.11-.21-.08-.15-.04-.07c-.38-.72-.63-1.51-.76-2.33.57.55,1.05,1.21,1.4,1.95.44.83.7,1.75.78,2.7,0,.12,0,.24,0,.36l-.06.04-.16.36c-.33.71-.32,1.56.04,2.26.38.76,1.08,1.27,1.88,1.35h.3l.28-.15c1.29-.77,2-2.37,1.95-4.38-.1-1.66-.54-3.28-1.3-4.73h0Z"/><path id="Fill-19" class="cls-1" d="m27.05,12.51c-.34-.05-.68.03-.98.22-.14.11-.26.23-.39.33.52.14,1.92.77,3.08,3.82.07-.48.24-.93.52-1.31.32-.31-1.18-2.22-2.23-3.07"/><path id="Fill-21" class="cls-3" d="m38.44,15.53c1.18-.88,2.89-.4,3.82,1.07.93,1.48.74,3.39-.44,4.27-1.18.88-2.89.4-3.82-1.07-.93-1.47-.74-3.39.44-4.27"/><path id="Fill-23" class="cls-6" d="m41.8,14.94c-.09-1.46-.49-2.88-1.15-4.16-1.22-2.44-3.02-4.06-4.58-4.13-.42-.02-.84.08-1.22.3-.9.53-1.37,1.68-1.32,3.19.09,1.46.48,2.87,1.14,4.14l.09.19,1.81-.68-.11-.21-.07-.12s-.05-.09-.08-.13c-.53-1-.84-2.11-.92-3.26,0-.83.17-1.25.35-1.36.08-.04.16-.05.24-.05.74.03,2.08,1.19,3.02,3.07.53,1,.84,2.11.92,3.25.03.83-.16,1.25-.35,1.36l-.29.13.07.33c.14.41.28.83.44,1.24l.12.32.3-.13h.06c.07-.02.14-.05.2-.09.9-.53,1.37-1.68,1.32-3.21"/><path id="Fill-25" class="cls-3" d="m40.47,18.15h-.02c-.1,0-.49-.1-.89-.76-.14-.32-.14-.7,0-1.02.19-.11.38-.53.35-1.36-.08-1.15-.4-2.26-.92-3.25-.94-1.88-2.28-3.03-3.02-3.07h-.03c-.07,0-.15.01-.21.05-.19.11-.38.53-.35,1.36.08,1.15.4,2.26.92,3.26,0,.05.05.09.08.13l.07.12.11.21-1.81.68-.09-.19c-.66-1.27-1.05-2.68-1.14-4.14-.05-1.54.42-2.66,1.32-3.19.34-.2.72-.3,1.11-.3h.11c1.56.07,3.36,1.69,4.58,4.13.67,1.27,1.06,2.69,1.15,4.16.07,1.51-.4,2.65-1.3,3.19m1.19-7.98c-1.44-2.87-3.56-4.69-5.55-4.78h-.16c-.58,0-1.16.15-1.67.46-1.29.77-1.99,2.36-1.92,4.38.1,1.65.54,3.26,1.29,4.7l.09.19.26.53c1.23-.58,2.5-1.1,3.76-1.59.09-.04.18-.04.27,0l-.49-.85-.11-.21-.08-.15-.04-.07c-.38-.72-.63-1.51-.76-2.33.57.55,1.05,1.21,1.4,1.95.44.82.71,1.75.78,2.69,0,.12,0,.24,0,.36l-.06.04-.16.36c-.33.71-.32,1.56.04,2.26.38.76,1.08,1.27,1.88,1.35h.3l.28-.15c1.29-.77,2-2.37,1.95-4.38-.1-1.67-.54-3.29-1.3-4.74"/><path id="Fill-27" class="cls-1" d="m37.85,7.69c-.34-.05-.68.03-.98.22-.15.11-.26.23-.39.33.52.14,1.91.77,3.08,3.82.06-.47.24-.92.51-1.29.33-.31-1.18-2.22-2.23-3.08"/><path id="Fill-29" class="cls-3" d="m46.96,25.2c-1.95.98-3.88,2.09-5.89,2.97v-.16c0-.37-.04-.74-.09-1.1-.55-.16-1.12-.27-1.67-.44-1.01,1.38-2.09,2.7-3.24,3.94-.07-.91-.07-1.83,0-2.75-.59-.17-1.17-.38-1.73-.64-1.21,1.98-2.03,4.21-3.24,6.19.44.35.87.7,1.29,1.06.76-1.27,1.45-2.6,2.06-3.97.03.69.06,1.38.05,2.06,0,.02,0,.05,0,.07l1.47.45c1.24-1.2,2.4-2.49,3.47-3.87v.19l.98,1.06c2.44-.94,4.71-2.3,7.06-3.47-.13-.49-.32-1.06-.51-1.6"/><path id="Fill-31" class="cls-3" d="m50.63,33.84c-1.74.9-3.45,1.86-5.23,2.66v-.16c0-.37-.04-.74-.09-1.1-.55-.16-1.12-.27-1.67-.44-1.01,1.38-2.09,2.7-3.24,3.95-.07-.92-.07-1.84,0-2.75-.59-.17-1.17-.38-1.73-.64-1.21,1.98-2.03,4.21-3.24,6.19.44.35.87.7,1.29,1.06.76-1.28,1.45-2.6,2.06-3.97.03.69.06,1.38.05,2.06,0,.03,0,.05,0,.07l1.47.45c1.24-1.2,2.4-2.49,3.47-3.87,0,.16-.02.37,0,.2l.98,1.06c2.23-.86,4.33-2.07,6.47-3.19-.15-.51-.37-1.05-.57-1.58"/><polygon id="Fill-33" class="cls-3" points="34.09 60.67 32.94 59.49 35.26 52.51 36.41 52.71 34.09 60.67"/><path id="Fill-35" class="cls-9" d="m56.29,45.37l17.1-28.84s5.47-.86,8.71,5.9l-17.9,28.64-9.46,7.01,1.55-12.71Z"/><path id="Fill-37" class="cls-4" d="m63.58,47.31c-.8-1.18-1.88-2.1-3.12-2.66-1.32-.42-2.7-.56-4.07-.4l-.1,1.14-3.33,16.6,12.11-10.9.02-.04c-.38-.99-.93-2.9-1.52-3.74"/><path id="Fill-39" class="cls-8" d="m75.38,29.13c.45.69.82,1.43,1.11,2.21l6.48-10.36c-1.85-7.93-8.69-5.91-8.69-5.91l-5.61,9.48c2.58.83,5.12,2.15,6.71,4.58"/><path id="Fill-41" class="cls-3" d="m76.23,13.01h0c-1.58,0-3.12.59-4.34,1.68l-.22.22-.16.28-17.1,28.84-.27.46-.06.53-1.54,12.71-.65,5.4,4.14-3.07,9.43-7.01.35-.25.24-.38,17.9-28.61.26-.42.08-.49c.63-3.58-1.53-6.91-3.82-8.45-1.25-.91-2.72-1.4-4.22-1.42m0,2.45c1.07.02,2.12.38,3.02,1.03,1.72,1.18,3.21,3.63,2.81,5.94l-17.9,28.64-10.4,9.34,2.56-15.04,17.1-28.84c.81-.7,1.81-1.07,2.84-1.06"/><path id="Fill-43" class="cls-3" d="m65.24,51.51h-.73c0-2.65-1.36-5-2.71-5.94-2.82-1.97-5.99-.7-6.02-.69l-.26-.74c.14-.06,3.54-1.43,6.68.76,1.52,1.07,3.05,3.68,3.05,6.61"/><path id="Fill-45" class="cls-10" d="m78,22.7c-1.52-2.13-4.22-3.02-6.64-2.66l-2.69,4.54c2.58.83,5.11,2.15,6.71,4.58.45.69.82,1.43,1.11,2.21l3.81-5.64c-.16-1.46-1.47-1.87-2.3-3.03"/><path id="Fill-47" class="cls-4" d="m74.91,17.38c-.13.11-.05.03-.11.24-.08.26-.2.51-.37.71-.52.6-1.07,1.16-1.66,1.67-.49.6-.87,1.3-1.12,2.06-.43,1.18-1.35,2.07-2.48,2.39l-.24.39,3.97,2.74,3.82-6.08s1.03-2.5,3.42-1.56c0,0-1.65-3.46-4.4-3.02-.3.09-.58.24-.84.45"/><path id="Fill-49" class="cls-3" d="m76.32,32.28c-1.21-3.09-3.12-5.1-5.66-5.98-1.89-.65-3.42-.41-3.43-.41l-.19-1.31c.07-.01,7.15-1.1,10.4,7.18l-1.12.52Z"/><path id="Fill-51" class="cls-3" d="m78.6,28.75c-2.96-6-7.29-6.35-8.92-6.48-.48-.04-.66-.05-.78-.22l-.07-.29.63.09c.02-.18-.1-.3-.16-.32.05.02.26.03.43.05,1.56.13,6.31.51,9.43,6.85l-.56.33Z"/><path id="Fill-53" class="cls-3" d="m80.41,26.51c-2.95-5.99-7.28-6.35-8.92-6.48-.48-.04-.66-.05-.79-.22l-.08-.29.63.09c.02-.18-.09-.3-.16-.32.05.02.26.03.44.05,1.56.13,6.31.52,9.43,6.84l-.56.33Z"/><polygon id="Fill-55" class="cls-3" points="62.32 44.86 61.72 44.41 72.38 27.32 72.99 27.77 62.32 44.86"/><path id="Fill-57" class="cls-3" d="m53.7,53.02s4.19.34,4.82,3.63l-5.74,4.51.92-8.13Z"/></g></g></g></g></svg>