<svg xmlns="http://www.w3.org/2000/svg" viewBox="0 0 1530 925" width="1530" height="925" preserveAspectRatio="xMidYMid meet" style="width: 100%; height: 100%; transform: translate3d(0px, 0px, 0px);"><defs><clipPath id="__lottie_element_2"><rect width="1530" height="925" x="0" y="0"></rect></clipPath></defs><g clip-path="url(#__lottie_element_2)"><g transform="matrix(1,0,0,1,44.9520263671875,-42.35198974609375)" opacity="1" style="display: block;"><path fill="rgb(255,255,255)" fill-opacity="1" d=" M1434.876953125,798.947021484375 C1434.876953125,798.947021484375 1434.47705078125,797.14501953125 1434.47705078125,797.14501953125 C1434.47705078125,797.14501953125 1403.2440185546875,691.0339965820312 1403.2440185546875,691.0339965820312 C1401.781005859375,685.3690185546875 1399.56396484375,679.9580078125 1396.6829833984375,674.9439697265625 C1397.2110595703125,668.3699951171875 1396.759033203125,661.6820068359375 1395.2960205078125,655.1240234375 C1395.2960205078125,655.1240234375 1395.06396484375,654.0789794921875 1395.06396484375,654.0789794921875 C1395.06396484375,654.0789794921875 1379.5970458984375,600.572998046875 1379.5970458984375,600.572998046875 C1378.1519775390625,594.6309814453125 1375.8790283203125,588.9580078125 1372.8819580078125,583.7150268554688 C1373.4129638671875,577.281005859375 1372.9830322265625,570.7550048828125 1371.56103515625,564.3699951171875 C1371.56103515625,564.3699951171875 1371.3470458984375,563.4039916992188 1371.3470458984375,563.4039916992188 C1371.3470458984375,563.4039916992188 1354.8509521484375,505.25799560546875 1354.8509521484375,505.25799560546875 C1347.8310546875,476.114013671875 1322.196044921875,442.2040100097656 1292.1090087890625,442.2040100097656 C1292.1090087890625,442.2040100097656 1232.56298828125,442.2040100097656 1232.56298828125,442.2040100097656 C1232.56298828125,442.2040100097656 1234.282958984375,374.1820068359375 1234.282958984375,374.1820068359375 C1231.8160400390625,343.64801025390625 1235.3089599609375,353.6730041503906 1230.531982421875,332.9159851074219 C1229.5069580078125,328.46600341796875 1228.623046875,324.62200927734375 1228.008056640625,321.7139892578125 C1228.008056640625,321.7139892578125 1228.0069580078125,321.7090148925781 1228.0069580078125,321.7090148925781 C1223.780029296875,301.74200439453125 1210.220947265625,274.72601318359375 1191.72705078125,266.18701171875 C1143.8189697265625,244.0780029296875 735.1079711914062,80.25 244.4320068359375,274.9010009765625 C225.50799560546875,282.4070129394531 212.3939971923828,300.4549865722656 208.1719970703125,320.41400146484375 C204.9739990234375,335.5140075683594 204.96200561523438,332.3320007324219 203.718994140625,373.15301513671875 C203.718994140625,373.15301513671875 209.1580047607422,442.2040100097656 209.1580047607422,442.2040100097656 C209.1580047607422,442.2040100097656 157.13499450683594,442.2040100097656 157.13499450683594,442.2040100097656 C126.66699981689453,442.2040100097656 100.22100067138672,477.385986328125 93.97000122070312,507.1449890136719 C93.97000122070312,507.1449890136719 4.276000022888184,788.0079956054688 4.276000022888184,788.0079956054688 C4.276000022888184,788.0079956054688 4.010000228881836,789.2369995117188 4.010000228881836,789.2369995117188 C0.25,808.2579956054688 5.14900016784668,827.7550048828125 17.43000030517578,842.697998046875 C19.79599952697754,845.583984375 22.43899917602539,848.281005859375 25.312999725341797,850.7420043945312 C29.77899932861328,855.1019897460938 53.39500045776367,862.4210205078125 98.62899780273438,886.8170166015625 C127.02100372314453,902.1279907226562 170.61300659179688,917.3610229492188 187.53700256347656,925.6640014648438 C195.6479949951172,929.64501953125 204.47500610351562,931.6119995117188 213.28900146484375,931.6119995117188 C223.0070037841797,931.6119995117188 232.7050018310547,929.218994140625 241.39199829101562,924.4920043945312 C241.39199829101562,924.4920043945312 311.9930114746094,892.4400024414062 311.9930114746094,892.4400024414062 C311.9930114746094,892.4400024414062 315.09100341796875,890.427001953125 315.09100341796875,890.427001953125 C320.760009765625,886.7429809570312 325.5039978027344,881.9459838867188 329.1090087890625,876.4099731445312 C329.1090087890625,876.4099731445312 329.1090087890625,887.7429809570312 329.1090087890625,887.7429809570312 C329.1090087890625,902.322998046875 334.5419921875,918.2670288085938 344.0140075683594,931.4849853515625 C356.2770080566406,948.5969848632812 373.6340026855469,958.4119873046875 391.6340026855469,958.4119873046875 C391.6340026855469,958.4119873046875 1057.0460205078125,958.4119873046875 1057.0460205078125,958.4119873046875 C1075.73095703125,958.4119873046875 1093.053955078125,948.0189819335938 1104.5760498046875,929.89697265625 C1112.626953125,917.2310180664062 1117.2459716796875,901.8660278320312 1117.2459716796875,887.7429809570312 C1117.2459716796875,887.7429809570312 1117.2459716796875,879.1669921875 1117.2459716796875,879.1669921875 C1117.2459716796875,879.1669921875 1192.8050537109375,927.7009887695312 1192.8050537109375,927.7009887695312 C1192.8050537109375,927.7009887695312 1200.06494140625,928.8109741210938 1200.06494140625,928.8109741210938 C1203.282958984375,929.302001953125 1206.5579833984375,929.552001953125 1209.7989501953125,929.552001953125 C1211.051025390625,929.552001953125 1212.20703125,929.5900268554688 1213.300048828125,929.6220092773438 C1221.4549560546875,929.8569946289062 1416.68505859375,860.2919921875 1422.22705078125,853.3560180664062 C1434.552001953125,837.9949951171875 1439.1629638671875,818.1649780273438 1434.876953125,798.947021484375z"></path></g><g transform="matrix(1,0,0,1,256.6600036621094,88.29600524902344)" opacity="1" style="display: block;"><path stroke-linecap="round" stroke-linejoin="round" fill-opacity="0" stroke="rgb(255,255,255)" stroke-opacity="1" stroke-width="72" d=" M980.61,273.3 C980.61,273.3 847.92,245.1 847.92,245.1 C841.29,244.02 835.49,240.33 831.69,234.88 C831.69,234.88 830.66,228.3 830.66,228.3 C830.66,228.3 823.18,272.96 823.18,272.96 C820.51,284.45 828.17,294.06 839.86,295.92 C839.86,295.92 966.49,322.43 966.49,322.43 C975.74,323.9 984.8,318.92 988.49,310.35 C988.49,310.35 998.52,269.26 998.52,269.26 C993.3,272.83 986.86,274.32 980.61,273.3z M180.16,238.37 C176.36,243.81 170.56,247.5 163.93,248.58 C163.93,248.58 27.27,279.37 27.27,279.37 C21.02,280.38 14.58,278.9 9.37,275.33 C9.37,275.33 15.95,307.81 15.95,307.81 C19.63,316.38 28.7,321.35 37.94,319.88 C37.94,319.88 168.54,290.79 168.54,290.79 C180.24,288.93 186.18,272.43 183.5,260.95 C183.5,260.95 181.19,238.2 181.19,238.2 C181.19,238.2 180.16,238.37 180.16,238.37z M986.04,115.58 C984.05,106.19 977.78,98.28 969.07,94.25 C925.99,74.37 759.95,14.82 548.21,1.64 C548.21,1.64 477.92,0.25 477.92,0.25 C254.09,9.71 75.57,72.25 30.7,92.96 C21.99,96.98 15.72,104.9 13.74,114.29 C9.1,136.17 0.25,201.67 4.38,243.52 C5.28,252.74 13.8,259.28 22.95,257.79 C22.95,257.79 159.6,227.01 159.6,227.01 C169.68,225.37 175.71,214.86 171.99,205.35 C166.88,192.28 160.3,150.56 159.49,151.05 C187.55,131.94 390.73,110.71 499.78,114.06 C627.28,113.74 791.53,137.4 852,154.93 C847.03,161.95 839.83,196 838.64,201.87 C836.6,211.88 840.95,221.89 851.02,223.53 C851.02,223.53 983.71,251.73 983.71,251.73 C992.86,253.22 1001.37,246.68 1002.29,237.45 C1006.41,195.6 990.67,137.46 986.04,115.58z"></path><g opacity="1" transform="matrix(1,0,0,1,503.3320007324219,129.76699829101562)"><path fill="rgb(48,2,79)" fill-opacity="1" d=" M477.27301025390625,143.5330047607422 C477.27301025390625,143.5330047607422 344.59100341796875,115.33100128173828 344.59100341796875,115.33100128173828 C337.95599365234375,114.25 332.1629943847656,110.56300354003906 328.3559875488281,105.11799621582031 C328.3559875488281,105.11799621582031 327.32501220703125,98.53299713134766 327.32501220703125,98.53299713134766 C327.32501220703125,98.53299713134766 319.8489990234375,143.1929931640625 319.8489990234375,143.1929931640625 C317.1730041503906,154.6790008544922 324.8349914550781,164.29400634765625 336.52899169921875,166.15199279785156 C336.52899169921875,166.15199279785156 463.1629943847656,192.66099548339844 463.1629943847656,192.66099548339844 C472.4070129394531,194.1300048828125 481.47198486328125,189.1540069580078 485.1579895019531,180.58700561523438 C485.1579895019531,180.58700561523438 495.18499755859375,139.4980010986328 495.18499755859375,139.4980010986328 C489.9700012207031,143.0659942626953 483.5299987792969,144.552001953125 477.27301025390625,143.5330047607422z M-323.1700134277344,108.5999984741211 C-326.97698974609375,114.04399871826172 -332.7690124511719,117.73200225830078 -339.4049987792969,118.81199645996094 C-339.4049987792969,118.81199645996094 -476.06298828125,149.59800720214844 -476.06298828125,149.59800720214844 C-482.31500244140625,150.61700439453125 -488.7550048828125,149.13099670410156 -493.9649963378906,145.56399536132812 C-493.9649963378906,145.56399536132812 -487.3869934082031,178.04400634765625 -487.3869934082031,178.04400634765625 C-483.6990051269531,186.61099243164062 -474.6319885253906,191.58599853515625 -465.3900146484375,190.11700439453125 C-465.3900146484375,190.11700439453125 -334.7879943847656,161.02499389648438 -334.7879943847656,161.02499389648438 C-323.09600830078125,159.16700744628906 -317.1520080566406,142.66400146484375 -319.8299865722656,131.1790008544922 C-319.8299865722656,131.1790008544922 -322.1390075683594,108.43199920654297 -322.1390075683594,108.43199920654297 C-322.1390075683594,108.43199920654297 -323.1700134277344,108.5999984741211 -323.1700134277344,108.5999984741211z M482.7099914550781,-14.182999610900879 C480.72198486328125,-23.576000213623047 474.447998046875,-31.490999221801758 465.7340087890625,-35.513999938964844 C422.65399169921875,-55.39500045776367 256.62298583984375,-114.95099639892578 44.87699890136719,-128.13099670410156 C44.87699890136719,-128.13099670410156 -25.41699981689453,-129.51699829101562 -25.41699981689453,-129.51699829101562 C-249.23899841308594,-120.06099700927734 -427.760009765625,-57.51300048828125 -472.62701416015625,-36.805999755859375 C-481.3399963378906,-32.78200149536133 -487.6080017089844,-24.868000030517578 -489.59698486328125,-15.475000381469727 C-494.2279968261719,6.39900016784668 -503.0820007324219,71.89900207519531 -498.9570007324219,113.7509994506836 C-498.0509948730469,122.9749984741211 -489.53399658203125,129.51600646972656 -480.38299560546875,128.02699279785156 C-480.38299560546875,128.02699279785156 -343.7300109863281,97.24299621582031 -343.7300109863281,97.24299621582031 C-333.6520080566406,95.60299682617188 -327.62298583984375,85.09100341796875 -331.3389892578125,75.58399963378906 C-336.45098876953125,62.51499938964844 -343.0360107421875,20.79599952697754 -343.8389892578125,21.28499984741211 C-315.78399658203125,2.1700000762939453 -112.5979995727539,-19.059999465942383 -3.553999900817871,-15.704000473022461 C123.947998046875,-16.027000427246094 288.1940002441406,7.632999897003174 348.66900634765625,25.15999984741211 C343.6969909667969,32.18199920654297 336.49700927734375,66.23200225830078 335.30999755859375,72.10299682617188 C333.27099609375,82.10800170898438 337.6189880371094,92.12100219726562 347.6919860839844,93.76200103759766 C347.6919860839844,93.76200103759766 480.38299560546875,121.96299743652344 480.38299560546875,121.96299743652344 C489.52899169921875,123.4530029296875 498.0419921875,116.91000366210938 498.9570007324219,107.68599700927734 C503.0820007324219,65.83399963378906 487.33599853515625,7.690000057220459 482.7099914550781,-14.182999610900879z"></path></g></g><g transform="matrix(1,0,0,1,291.8730163574219,65.81999969482422)" opacity="1" style="display: block;"><g opacity="1" transform="matrix(1,0,0,1,464.82598876953125,60.48500061035156)"><path fill="rgb(255,255,255)" fill-opacity="1" d=" M-25.483999252319336,-60.23500061035156 C-25.483999252319336,-60.23500061035156 -62.551998138427734,9.267000198364258 -62.551998138427734,9.267000198364258 C-62.551998138427734,9.267000198364258 -7.208000183105469,14.994000434875488 -7.208000183105469,14.994000434875488 C-7.208000183105469,14.994000434875488 -32.433998107910156,60.23500061035156 -32.433998107910156,60.23500061035156 C-32.433998107910156,60.23500061035156 44.018001556396484,2.316999912261963 44.018001556396484,2.316999912261963 C44.018001556396484,2.316999912261963 -7.7870001792907715,-12.61299991607666 -7.7870001792907715,-12.61299991607666 C-7.7870001792907715,-12.61299991607666 62.551998138427734,-46.334999084472656 62.551998138427734,-46.334999084472656 C62.551998138427734,-46.334999084472656 -25.483999252319336,-60.23500061035156 -25.483999252319336,-60.23500061035156z"></path></g></g><g transform="matrix(1,0,0,1,470.6120300292969,225.81100463867188)" opacity="1" style="display: block;"><g opacity="1" transform="matrix(1,0,0,1,286.7279968261719,87.77100372314453)"><path fill="rgb(48,2,79)" fill-opacity="1" d=" M-83.75599670410156,-2.875999927520752 C-83.75599670410156,-2.875999927520752 -83.75900268554688,-2.875999927520752 -83.75900268554688,-2.875999927520752 C-83.75900268554688,-2.875999927520752 -83.76100158691406,-2.875999927520752 -83.76100158691406,-2.875999927520752 C-88.59500122070312,-2.875999927520752 -93.14399719238281,-0.9929999709129333 -96.56700134277344,2.4260001182556152 C-99.98899841308594,5.8460001945495605 -101.8740005493164,10.394000053405762 -101.8740005493164,15.230999946594238 C-101.8759994506836,25.2189998626709 -93.75199890136719,33.34600067138672 -83.76399993896484,33.3489990234375 C-83.76399993896484,33.3489990234375 -83.76100158691406,33.3489990234375 -83.76100158691406,33.3489990234375 C-73.7770004272461,33.3489990234375 -65.6500015258789,25.22599983215332 -65.6500015258789,15.234999656677246 C-65.66000366210938,5.260000228881836 -73.78199768066406,-2.865000009536743 -83.75599670410156,-2.875999927520752z M-63.016998291015625,81.91899871826172 C-63.016998291015625,81.91899871826172 -61.11899948120117,81.21700286865234 -61.11899948120117,81.21700286865234 C-61.11899948120117,81.21700286865234 -59.279998779296875,82.05699920654297 -59.279998779296875,82.05699920654297 C-54.85900115966797,84.0770034790039 -49.979000091552734,85.15399932861328 -45.165000915527344,85.16999816894531 C-38.709999084472656,85.16400146484375 -32.382999420166016,83.4990005493164 -26.88800048828125,80.35099792480469 C-26.88800048828125,80.35099792480469 -24.402999877929688,78.927001953125 -24.402999877929688,78.927001953125 C-24.402999877929688,78.927001953125 -21.941999435424805,80.3949966430664 -21.941999435424805,80.3949966430664 C-18.722000122070312,82.31800079345703 -15.239999771118164,83.73699951171875 -11.58899974822998,84.61499786376953 C-2.009000062942505,86.93599700927734 7.915999889373779,85.37100219726562 16.358999252319336,80.21099853515625 C27.260000228881836,73.54000091552734 34.034000396728516,61.45800018310547 34.034000396728516,48.68199920654297 C34.034000396728516,48.68199920654297 34.034000396728516,25.430999755859375 34.034000396728516,25.430999755859375 C34.034000396728516,25.430999755859375 46.4370002746582,24.68600082397461 46.4370002746582,24.68600082397461 C46.4370002746582,24.68600082397461 45.051998138427734,51.020999908447266 45.051998138427734,51.020999908447266 C45.3120002746582,71.14600372314453 62.132999420166016,87.52100372314453 82.5479965209961,87.52100372314453 C92.38999938964844,87.39600372314453 101.9530029296875,83.29199981689453 108.7239990234375,76.25800323486328 C108.7239990234375,76.25800323486328 112.06900024414062,72.78399658203125 112.06900024414062,72.78399658203125 C112.06900024414062,72.78399658203125 115.59500122070312,76.072998046875 115.59500122070312,76.072998046875 C122.4520034790039,82.46800231933594 131.58399963378906,85.99099731445312 141.30999755859375,85.99099731445312 C152.13299560546875,85.85600280761719 162.37899780273438,80.94499969482422 169.35699462890625,72.51899719238281 C169.35699462890625,72.51899719238281 172.3419952392578,68.91400146484375 172.3419952392578,68.91400146484375 C172.3419952392578,68.91400146484375 176.07899475097656,71.73300170898438 176.07899475097656,71.73300170898438 C188.88099670410156,81.38600158691406 204.33999633789062,86.74400329589844 219.61000061035156,86.81800079345703 C239.05099487304688,86.80899810791016 258.2229919433594,78.48799896240234 272.1990051269531,63.9900016784668 C285.9840087890625,48.78099822998047 286.47900390625,35.236000061035156 284.4639892578125,26.54800033569336 C284.4639892578125,26.54800033569336 284.46099853515625,26.538000106811523 284.46099853515625,26.538000106811523 C283.3420104980469,21.67099952697754 281.33599853515625,17.18000030517578 278.49798583984375,13.196000099182129 C278.49798583984375,13.196000099182129 276.7539978027344,10.744999885559082 276.7539978027344,10.744999885559082 C276.7539978027344,10.744999885559082 278.1499938964844,8.079999923706055 278.1499938964844,8.079999923706055 C285.2929992675781,-5.559999942779541 283.0780029296875,-22.945999145507812 272.76300048828125,-34.19900131225586 C272.03900146484375,-34.99700164794922 271.35400390625,-35.724998474121094 270.6499938964844,-36.426998138427734 C257.2449951171875,-49.89099884033203 238.63400268554688,-57.60300064086914 219.572998046875,-57.60300064086914 C207.2519989013672,-57.60300064086914 195.69700622558594,-54.63399887084961 185.2310028076172,-48.777000427246094 C185.2310028076172,-48.777000427246094 178.36300659179688,-44.933998107910156 178.36300659179688,-44.933998107910156 C178.36300659179688,-44.933998107910156 177.9459991455078,-52.792999267578125 177.9459991455078,-52.792999267578125 C176.91299438476562,-72.26599884033203 160.81100463867188,-87.52100372314453 141.28799438476562,-87.52100372314453 C128.45599365234375,-87.52100372314453 116.80899810791016,-81.00900268554688 110.13400268554688,-70.10199737548828 C110.13400268554688,-70.10199737548828 107.41699981689453,-65.66100311279297 107.41699981689453,-65.66100311279297 C107.41699981689453,-65.66100311279297 103.1500015258789,-68.64399719238281 103.1500015258789,-68.64399719238281 C96.43499755859375,-73.33799743652344 88.54900360107422,-75.5999984741211 80.3550033569336,-75.24099731445312 C66.96299743652344,-74.63800048828125 54.909000396728516,-66.7750015258789 48.89400100708008,-54.72100067138672 C48.89400100708008,-54.72100067138672 47.12300109863281,-51.176998138427734 47.12300109863281,-51.176998138427734 C47.12300109863281,-51.176998138427734 43.28799819946289,-52.165000915527344 43.28799819946289,-52.165000915527344 C39.375999450683594,-53.17300033569336 36.27899932861328,-53.59400177001953 32.54999923706055,-53.512001037597656 C27.091999053955078,-53.512001037597656 21.27199935913086,-52.62300109863281 15.649999618530273,-50.944000244140625 C15.649999618530273,-50.944000244140625 13.831999778747559,-50.39899826049805 13.831999778747559,-50.39899826049805 C13.831999778747559,-50.39899826049805 12.121999740600586,-51.222999572753906 12.121999740600586,-51.222999572753906 C1.1449999809265137,-56.507999420166016 -12.218999862670898,-55.68000030517578 -22.756999969482422,-49.04899978637695 C-22.756999969482422,-49.04899978637695 -25.14299964904785,-47.54800033569336 -25.14299964904785,-47.54800033569336 C-25.14299964904785,-47.54800033569336 -27.641000747680664,-48.85599899291992 -27.641000747680664,-48.85599899291992 C-37.393001556396484,-53.965999603271484 -49.84400177001953,-54.540000915527344 -60.137001037597656,-50.36800003051758 C-60.137001037597656,-50.36800003051758 -62.00299835205078,-49.611000061035156 -62.00299835205078,-49.611000061035156 C-62.00299835205078,-49.611000061035156 -63.86199951171875,-50.3849983215332 -63.86199951171875,-50.3849983215332 C-80.90699768066406,-57.486000061035156 -104.30400085449219,-54.76499938964844 -122.0719985961914,-43.625 C-122.0719985961914,-43.625 -127.7239990234375,-40.07899856567383 -127.7239990234375,-40.07899856567383 C-127.7239990234375,-40.07899856567383 -129.41400146484375,-46.53300094604492 -129.41400146484375,-46.53300094604492 C-130.9669952392578,-52.465999603271484 -134.02200317382812,-57.96500015258789 -138.2469940185547,-62.435001373291016 C-156.83399963378906,-82.04900360107422 -181.84100341796875,-84.56400299072266 -201.54800415039062,-84.56400299072266 C-248.37899780273438,-84.56400299072266 -286.4779968261719,-46.4640007019043 -286.4779968261719,0.36800000071525574 C-286.4779968261719,47.20000076293945 -248.37899780273438,85.3010025024414 -201.54800415039062,85.3010025024414 C-179.08799743652344,85.3010025024414 -158.45399475097656,77.2770004272461 -143.4499969482422,62.70800018310547 C-143.4499969482422,62.70800018310547 -139.83799743652344,59.20199966430664 -139.83799743652344,59.20199966430664 C-139.83799743652344,59.20199966430664 -136.43099975585938,62.90599822998047 -136.43099975585938,62.90599822998047 C-123.14800262451172,77.3479995727539 -104.3239974975586,85.64399719238281 -84.78500366210938,85.66600036621094 C-77.16999816894531,85.66600036621094 -69.64099884033203,84.37000274658203 -63.016998291015625,81.91899871826172z M179.5290069580078,-14.519000053405762 C187.19900512695312,-25.492000579833984 198.68600463867188,-32.821998596191406 211.87100219726562,-35.15700149536133 C214.822998046875,-35.68000030517578 217.7830047607422,-35.93899917602539 220.71800231933594,-35.93899917602539 C230.89700317382812,-35.93899917602539 240.8159942626953,-32.834999084472656 249.33200073242188,-26.881999969482422 C251.7310028076172,-25.207000732421875 253.9929962158203,-23.30900001525879 256.0580139160156,-21.243999481201172 C256.56201171875,-20.73900032043457 257.06201171875,-20.22100067138672 257.54901123046875,-19.70400047302246 C263.1080017089844,-13.64799976348877 262.7030029296875,-4.197000026702881 256.6470031738281,1.3600000143051147 C250.58700561523438,6.916999816894531 241.13600158691406,6.507999897003174 235.57200622558594,0.4449999928474426 C235.50599670410156,0.37599998712539673 229.04200744628906,-6.482999801635742 220.56700134277344,-6.119999885559082 C209.21200561523438,-5.65500020980835 200.3159942626953,3.263000011444092 200.3159942626953,14.182000160217285 C200.31399536132812,25.378000259399414 209.4199981689453,34.48699951171875 220.61700439453125,34.48899841308594 C220.61700439453125,34.48899841308594 220.61900329589844,34.48899841308594 220.61900329589844,34.48899841308594 C227.2530059814453,34.48899841308594 233.47900390625,31.240999221801758 237.2729949951172,25.802000045776367 C241.98599243164062,19.06800079345703 251.29600524902344,17.423999786376953 258.0360107421875,22.139999389648438 C264.76800537109375,26.854999542236328 266.4119873046875,36.16999816894531 261.6960144042969,42.90299987792969 C261.6960144042969,42.90299987792969 261.4880065917969,43.2140007019043 261.4880065917969,43.2140007019043 C245.58700561523438,65.62100219726562 214.44500732421875,71.05000305175781 191.8939971923828,55.284000396728516 C169.24000549316406,39.446998596191406 163.6929931640625,8.133999824523926 179.5290069580078,-14.519000053405762z M127.41699981689453,-50.06700134277344 C127.41699981689453,-54.04999923706055 128.9709930419922,-57.792999267578125 131.78799438476562,-60.608001708984375 C134.60299682617188,-63.422000885009766 138.34500122070312,-64.97100067138672 142.3280029296875,-64.97100067138672 C142.3280029296875,-64.97100067138672 142.33399963378906,-64.97100067138672 142.33399963378906,-64.97100067138672 C150.5489959716797,-64.96800231933594 157.23500061035156,-58.28099822998047 157.23699951171875,-50.06700134277344 C157.23699951171875,-50.06700134277344 157.23699951171875,-49.5629997253418 157.23699951171875,-49.5629997253418 C157.23699951171875,-45.57899856567383 155.68299865722656,-41.83599853515625 152.86599731445312,-39.02000045776367 C150.05099487304688,-36.207000732421875 146.3090057373047,-34.65800094604492 142.3280029296875,-34.65800094604492 C142.3280029296875,-34.65800094604492 142.32000732421875,-34.65800094604492 142.32000732421875,-34.65800094604492 C134.10499572753906,-34.65999984741211 127.41999816894531,-41.34700012207031 127.41699981689453,-49.5629997253418 C127.41699981689453,-49.5629997253418 127.41699981689453,-50.06700134277344 127.41699981689453,-50.06700134277344z M126.9219970703125,-8.85200023651123 C126.93800354003906,-16.968000411987305 133.3070068359375,-23.509000778198242 141.38400268554688,-23.740999221801758 C141.52699279785156,-23.740999221801758 141.66900634765625,-23.736000061035156 141.81399536132812,-23.729999542236328 C141.98599243164062,-23.724000930786133 142.16400146484375,-23.718000411987305 142.33900451660156,-23.718000411987305 C142.33900451660156,-23.718000411987305 142.65899658203125,-23.7189998626709 142.65899658203125,-23.7189998626709 C150.55099487304688,-23.273000717163086 156.73899841308594,-16.73200035095215 156.7469940185547,-8.829999923706055 C156.7469940185547,-8.829999923706055 156.73899841308594,48.895999908447266 156.73899841308594,48.895999908447266 C156.67300415039062,52.874000549316406 155.06500244140625,56.5880012512207 152.20899963378906,59.356998443603516 C149.3509979248047,62.12900161743164 145.5749969482422,63.617000579833984 141.59800720214844,63.558998107910156 C133.4949951171875,63.43299865722656 127.05000305175781,56.98699951171875 126.9219970703125,48.90299987792969 C126.9219970703125,48.90299987792969 126.9219970703125,-8.85200023651123 126.9219970703125,-8.85200023651123z M65.33399963378906,-29.798999786376953 C65.49299621582031,-29.802000045776367 65.64600372314453,-29.802000045776367 65.8239974975586,-29.798999786376953 C65.8239974975586,-29.798999786376953 68.13800048828125,-29.798999786376953 68.13800048828125,-29.798999786376953 C68.13800048828125,-29.798999786376953 68.13800048828125,-37.707000732421875 68.13800048828125,-37.707000732421875 C68.07499694824219,-41.68899917602539 69.56800079345703,-45.457000732421875 72.33899688720703,-48.31800079345703 C75.11299896240234,-51.176998138427734 78.83100128173828,-52.7869987487793 82.81400299072266,-52.8489990234375 C91.05899810791016,-52.992000579833984 97.8270034790039,-46.39400100708008 97.95500183105469,-38.17399978637695 C97.95800018310547,-38.018001556396484 97.95800018310547,-37.86199951171875 97.95500183105469,-37.6870002746582 C97.95500183105469,-37.6870002746582 97.95500183105469,-29.783000946044922 97.95500183105469,-29.783000946044922 C97.95500183105469,-29.783000946044922 100.76200103759766,-29.783000946044922 100.76200103759766,-29.783000946044922 C108.98200225830078,-29.655000686645508 115.56700134277344,-22.863000869750977 115.43800354003906,-14.640999794006348 C115.31199645996094,-6.706999778747559 109.12999725341797,-0.36000001430511475 101.26499938964844,0.01899999938905239 C101.26499938964844,0.01899999938905239 97.95500183105469,0.01899999938905239 97.95500183105469,0.01899999938905239 C97.95500183105469,0.01899999938905239 97.95500183105469,51.499000549316406 97.95500183105469,51.499000549316406 C98.01799774169922,55.48099899291992 96.5270004272461,59.249000549316406 93.75599670410156,62.10900115966797 C90.98300170898438,64.96900177001953 87.26200103759766,66.5780029296875 83.28199768066406,66.64099884033203 C83.2030029296875,66.64199829101562 83.12300109863281,66.64199829101562 83.04399871826172,66.64199829101562 C74.93000030517578,66.64199829101562 68.26699829101562,60.106998443603516 68.13800048828125,51.96500015258789 C68.13500213623047,51.810001373291016 68.13500213623047,51.65399932861328 68.13800048828125,51.47800064086914 C68.13800048828125,51.47800064086914 68.13800048828125,0.01899999938905239 68.13800048828125,0.01899999938905239 C68.13800048828125,0.01899999938905239 66.83300018310547,0.01899999938905239 66.83300018310547,0.01899999938905239 C66.83300018310547,0.01899999938905239 65.802001953125,0.01899999938905239 65.802001953125,0.01899999938905239 C57.62799835205078,0.19200000166893005 50.78900146484375,-6.435999870300293 50.6609992980957,-14.657999992370605 C50.53499984741211,-22.878000259399414 57.11600112915039,-29.670000076293945 65.33399963378906,-29.798999786376953z M-16.81999969482422,-18.31100082397461 C-16.81100082397461,-26.523000717163086 -10.119999885559082,-33.2130012512207 -1.9110000133514404,-33.222999572753906 C2.2639999389648438,-33.222999572753906 8.88599967956543,-30.558000564575195 10.029000282287598,-23.216999053955078 C10.029000282287598,-23.216999053955078 10.418000221252441,-20.72599983215332 10.418000221252441,-20.72599983215332 C10.418000221252441,-20.72599983215332 12.229000091552734,-22.48200035095215 12.229000091552734,-22.48200035095215 C18.68000030517578,-28.740999221801758 26.736000061035156,-31.591999053955078 31.506000518798828,-31.591999053955078 C34.452999114990234,-31.624000549316406 37.39899826049805,-31.354999542236328 40.270999908447266,-30.78700065612793 C41.55400085449219,-30.516000747680664 42.777000427246094,-30.062000274658203 43.915000915527344,-29.434999465942383 C38.29600143432617,-20.972999572753906 38.07699966430664,-10.015000343322754 43.347999572753906,-1.3380000591278076 C41.44200134277344,-0.4860000014305115 39.36600112915039,-0.03999999910593033 37.27000045776367,-0.03999999910593033 C37.27000045776367,-0.03999999910593033 37.25899887084961,-0.03999999910593033 37.25899887084961,-0.03999999910593033 C37.25899887084961,-0.03999999910593033 35.58000183105469,-0.03999999910593033 35.58000183105469,-0.03999999910593033 C30.743000030517578,-0.03999999910593033 26.833999633789062,0.2529999911785126 24.575000762939453,0.7829999923706055 C13.517999649047852,3.3469998836517334 12.795999526977539,15.281000137329102 12.998000144958496,20.299999237060547 C13.003999710083008,20.400999069213867 13.003999710083008,20.503000259399414 12.998000144958496,20.66200065612793 C12.998000144958496,20.66200065612793 12.998000144958496,48.2239990234375 12.998000144958496,48.2239990234375 C12.869000434875488,56.44499969482422 6.129000186920166,63.01900100708008 -2.1429998874664307,62.900001525878906 C-10.24899959564209,62.77299880981445 -16.694000244140625,56.32699966430664 -16.81999969482422,48.24399948120117 C-16.81999969482422,48.24399948120117 -16.81999969482422,-18.31100082397461 -16.81999969482422,-18.31100082397461z M-148.83299255371094,35.33000183105469 C-148.83299255371094,35.33000183105469 -148.83299255371094,35.32899856567383 -148.83299255371094,35.32899856567383 C-159.98899841308594,53.034000396728516 -178.3419952392578,62.78300094604492 -200.51600646972656,62.78300094604492 C-235.18099975585938,62.78300094604492 -263.3810119628906,34.584999084472656 -263.3810119628906,-0.07500000298023224 C-263.3810119628906,-34.74800109863281 -235.18099975585938,-62.95600128173828 -200.51600646972656,-62.95600128173828 C-185.218994140625,-62.95600128173828 -166.0260009765625,-61.2239990234375 -153.23500061035156,-47.71799850463867 C-147.59500122070312,-41.75199890136719 -147.8509979248047,-32.30400085449219 -153.8209991455078,-26.64299964904785 C-155.99000549316406,-24.527999877929688 -158.84300231933594,-23.368000030517578 -161.8820037841797,-23.368000030517578 C-166.281005859375,-23.349000930786133 -170.9290008544922,-25.322999954223633 -174.9550018310547,-27.270000457763672 C-185.68899536132812,-32.46200180053711 -192.26800537109375,-33.1619987487793 -197.28799438476562,-33.1619987487793 C-197.28799438476562,-33.1619987487793 -200.5019989013672,-33.1619987487793 -200.5019989013672,-33.1619987487793 C-218.72900390625,-33.1619987487793 -233.55799865722656,-18.33300018310547 -233.55799865722656,-0.10599999874830246 C-233.55799865722656,18.121000289916992 -218.72900390625,32.95000076293945 -200.5019989013672,32.95000076293945 C-192.38600158691406,32.95000076293945 -181.22799682617188,30.628999710083008 -174.16200256347656,19.576000213623047 C-174.16200256347656,19.576000213623047 -172.87899780273438,17.569000244140625 -172.87899780273438,17.569000244140625 C-172.87899780273438,17.569000244140625 -175.25900268554688,17.569000244140625 -175.25900268554688,17.569000244140625 C-179.7779998779297,17.569000244140625 -184.5679931640625,17.54800033569336 -188.14599609375,17.531999588012695 C-188.14599609375,17.531999588012695 -191.41799926757812,17.51799964904785 -191.41799926757812,17.51799964904785 C-191.41799926757812,17.51799964904785 -191.58999633789062,17.52899932861328 -191.58999633789062,17.52899932861328 C-195.56500244140625,18.038999557495117 -199.4929962158203,16.97800064086914 -202.66299438476562,14.532999992370605 C-205.83399963378906,12.08899974822998 -207.86099243164062,8.557000160217285 -208.3719940185547,4.586999893188477 C-208.88400268554688,0.6159999966621399 -207.822998046875,-3.315999984741211 -205.3769989013672,-6.486000061035156 C-202.9340057373047,-9.654999732971191 -199.39999389648438,-11.684000015258789 -195.43099975585938,-12.196999549865723 C-194.79600524902344,-12.279000282287598 -194.1479949951172,-12.319999694824219 -193.5050048828125,-12.319999694824219 C-193.5050048828125,-12.319999694824219 -190.7310028076172,-12.3100004196167 -190.7310028076172,-12.3100004196167 C-185.5989990234375,-12.288000106811523 -173.9429931640625,-12.241000175476074 -167.05999755859375,-12.241000175476074 C-159.20700073242188,-12.241000175476074 -151.968994140625,-7.620999813079834 -147.6959991455078,0.11400000005960464 C-142.82699584960938,9.008000373840332 -141.28900146484375,23.34600067138672 -148.83299255371094,35.33000183105469z M-131.24400329589844,14.821000099182129 C-131.01199340820312,-11.13700008392334 -109.7020034790039,-32.44599914550781 -83.75800323486328,-32.678001403808594 C-74.3280029296875,-32.678001403808594 -67.47100067138672,-29.819000244140625 -60.09600067138672,-22.808000564575195 C-60.09600067138672,-22.808000564575195 -58.71699905395508,-21.496999740600586 -58.71699905395508,-21.496999740600586 C-58.71699905395508,-21.496999740600586 -57.992000579833984,-23.256999969482422 -57.992000579833984,-23.256999969482422 C-55.85499954223633,-28.44099998474121 -50.55400085449219,-31.66200065612793 -44.15599822998047,-31.66200065612793 C-35.944000244140625,-31.652000427246094 -29.25200080871582,-24.961999893188477 -29.243999481201172,-16.75200080871582 C-29.243999481201172,-16.75200080871582 -29.243999481201172,47.744998931884766 -29.243999481201172,47.744998931884766 C-29.2549991607666,55.95500183105469 -35.944000244140625,62.643001556396484 -44.15299987792969,62.65399932861328 C-49.26300048828125,62.65399932861328 -53.72700119018555,59.347999572753906 -56.39699935913086,53.58300018310547 C-56.39699935913086,53.58300018310547 -57.27199935913086,51.69900131225586 -57.27199935913086,51.69900131225586 C-57.27199935913086,51.69900131225586 -58.5880012512207,53.30400085449219 -58.5880012512207,53.30400085449219 C-63.667999267578125,59.48699951171875 -73.07599639892578,63.178001403808594 -83.74400329589844,63.178001403808594 C-96.5469970703125,63.06399917602539 -108.53900146484375,57.970001220703125 -117.50900268554688,48.83700180053711 C-126.48200225830078,39.70399856567383 -131.35899353027344,27.62299919128418 -131.24400329589844,14.821000099182129z"></path></g></g><g transform="matrix(1,0,0,1,105.60504150390625,452.2080078125)" opacity="1" style="display: block;"><path stroke-linecap="round" stroke-linejoin="round" fill-opacity="0" stroke="rgb(48,2,79)" stroke-opacity="1" stroke-width="65" d=" M299.81,20.76 C296.59,16.96 291.88,14.77 286.9,14.77 C286.9,14.77 89.9,14.77 89.9,14.77 C89.9,14.77 0.25,295.99 0.25,295.99 C0.25,295.99 93.06,287.37 93.06,287.37 C101.08,286.14 107.42,280.23 109.24,272.33 C109.24,272.33 118.07,233.74 118.07,233.74 C118.59,231.49 167.98,231.41 242.13,220.66 C252.16,219.2 260.04,211.51 261.71,201.51 C261.71,201.51 303.57,34.49 303.57,34.49 C304.4,29.57 303.03,24.57 299.81,20.76z M218.13,86.04 C218.13,86.04 218.13,86.04 218.13,86.04 C218.13,86.04 208,145.27 208,145.27 C207.14,150.31 202.81,153.96 197.69,153.96 C197.69,153.96 140.88,158.86 139.99,157.78 C139.11,156.7 156.34,77.52 156.34,77.52 C156.79,75.38 158.7,73.82 160.88,73.82 C160.88,73.82 207.82,73.82 207.82,73.82 C210.9,73.82 213.82,75.18 215.81,77.54 C217.8,79.9 218.64,83 218.13,86.04z M439.56,73.53 C439.36,74.6 438.8,75.56 437.98,76.25 C437.15,76.95 436.09,77.33 435,77.33 C435,77.33 407.27,77.33 407.27,77.33 C405.9,77.33 404.61,76.74 403.73,75.69 C402.85,74.65 402.48,73.28 402.7,71.93 C402.7,71.93 412.4,14.58 412.4,14.58 C412.4,14.58 332.77,14.77 332.77,14.77 C332.77,14.77 286.44,214.98 286.44,214.98 C286.44,214.98 378.62,208.28 378.62,208.28 C378.62,208.28 388.99,154.04 388.99,154.04 C389.4,151.86 391.32,150.29 393.54,150.29 C393.54,150.29 421.31,150.29 421.31,150.29 C423.76,150.29 425.79,152.19 425.93,154.63 C425.95,154.99 425.94,155.34 425.88,155.67 C425.88,155.67 418.09,203.6 418.09,203.6 C418.09,203.6 493.49,196.05 493.49,196.05 C493.49,196.05 524.76,14.77 524.76,14.77 C524.76,14.77 450.06,14.77 450.06,14.77 C450.06,14.77 439.56,73.53 439.56,73.53z M654.04,0.25 C585.92,0.25 530.7,49.3 530.7,109.81 C530.7,170.31 585.92,219.36 654.04,219.36 C722.16,219.36 777.38,170.31 777.38,109.81 C777.38,49.3 722.16,0.25 654.04,0.25z M916.26,20.41 C916.26,20.41 927.2,75.44 927.2,75.44 C927.5,76.83 927.17,78.24 926.31,79.32 C924.53,81.53 910.09,81.56 908.31,79.23 C908.31,79.23 868.15,20.34 868.15,20.34 C868.15,20.34 788.33,20.41 788.33,20.41 C788.33,20.41 816.28,204.78 816.28,204.78 C816.28,204.78 880.72,210.31 880.72,210.31 C880.72,210.31 871.38,156.76 871.38,156.76 C871.29,156.36 871.27,155.98 871.27,155.73 C871.31,155.14 871.34,154.9 871.4,154.66 C871.55,154.14 871.66,153.82 871.85,153.49 C871.85,153.49 873.01,152.15 873.01,152.15 C873.47,151.82 873.71,151.68 873.97,151.56 C873.97,151.56 875.75,151.14 875.75,151.14 C875.83,151.14 875.89,151.13 875.95,151.13 C876.18,151.13 890.53,151.15 890.65,151.17 C890.65,151.17 892.26,151.63 892.26,151.63 C892.26,151.63 892.89,152.05 892.89,152.05 C893.4,152.47 893.63,152.71 893.83,152.97 C893.83,152.97 932.36,215.62 932.36,215.62 C932.36,215.62 1035.09,225.52 1035.09,225.52 C1035.09,225.52 983.4,20.41 983.4,20.41 C983.4,20.41 916.26,20.41 916.26,20.41z M1273.38,201.55 C1273.38,201.55 1166.22,201.6 1166.22,201.6 C1164,201.6 1162.08,200.02 1161.67,197.85 C1161.67,197.85 1156.1,169.3 1156.1,169.3 C1155.84,167.93 1156.19,166.53 1157.07,165.46 C1157.96,164.39 1159.26,163.77 1160.65,163.77 C1160.65,163.77 1265.19,163.77 1265.19,163.77 C1265.19,163.77 1249.48,110.07 1249.48,110.07 C1249.48,110.07 1143.54,110.25 1143.54,110.25 C1141.34,110.25 1139.42,108.67 1139,106.5 C1139,106.5 1133.43,77.94 1133.43,77.94 C1133.16,76.57 1133.52,75.18 1134.4,74.11 C1135.29,73.04 1136.59,72.42 1137.98,72.42 C1137.98,72.42 1241.32,72.42 1241.32,72.42 C1241.32,72.42 1224.71,14.64 1224.71,14.64 C1224.71,14.64 1029.17,14.77 1029.17,14.77 C1023.92,14.77 1018.99,17.1 1015.65,21.15 C1012.31,25.2 1010.97,30.49 1011.97,35.64 C1011.97,35.64 1068.69,253.53 1068.69,253.53 C1070.1,260.78 1075.94,266.39 1083.23,267.51 C1083.23,267.51 1304.67,304.44 1304.67,304.44 C1304.67,304.44 1273.38,201.55 1273.38,201.55z"></path><g opacity="1" transform="matrix(1.0000052452087402,-0.000004524230462266132,0.000004524230462266132,1.0000052452087402,152.326904296875,155.3822021484375)"><path fill="rgb(48,2,79)" fill-opacity="1" d=" M147.48599243164062,-134.61599731445312 C144.26600646972656,-138.4250030517578 139.55599975585938,-140.60800170898438 134.57000732421875,-140.60800170898438 C134.57000732421875,-140.60800170898438 -62.42499923706055,-140.60800170898438 -62.42499923706055,-140.60800170898438 C-62.42499923706055,-140.60800170898438 -152.07699584960938,140.60800170898438 -152.07699584960938,140.60800170898438 C-152.07699584960938,140.60800170898438 -59.26300048828125,131.98500061035156 -59.26300048828125,131.98500061035156 C-51.25,130.7530059814453 -44.90399932861328,124.84700012207031 -43.090999603271484,116.94400024414062 C-43.090999603271484,116.94400024414062 -34.25299835205078,78.36199951171875 -34.25299835205078,78.36199951171875 C-33.742000579833984,76.11199951171875 15.649999618530273,76.0260009765625 89.80400085449219,65.27999877929688 C99.83399963378906,63.821998596191406 107.70800018310547,56.124000549316406 109.38500213623047,46.124000549316406 C109.38500213623047,46.124000549316406 151.2469940185547,-120.88999938964844 151.2469940185547,-120.88999938964844 C152.07699584960938,-125.80599975585938 150.7050018310547,-130.81100463867188 147.48599243164062,-134.61599731445312z M65.8010025024414,-69.34300231933594 C65.8010025024414,-69.34300231933594 65.8010025024414,-69.34100341796875 65.8010025024414,-69.34100341796875 C65.8010025024414,-69.34100341796875 55.676998138427734,-10.11299991607666 55.676998138427734,-10.11299991607666 C54.81399917602539,-5.073999881744385 50.47999954223633,-1.4170000553131104 45.36600112915039,-1.4170000553131104 C45.36600112915039,-1.4170000553131104 -11.449000358581543,3.4820001125335693 -12.333999633789062,2.3970000743865967 C-13.217000007629395,1.315000057220459 4.013000011444092,-77.85800170898438 4.013000011444092,-77.85800170898438 C4.4629998207092285,-80.00499725341797 6.369999885559082,-81.55799865722656 8.553000450134277,-81.55799865722656 C8.553000450134277,-81.55799865722656 55.4900016784668,-81.55799865722656 55.4900016784668,-81.55799865722656 C58.577999114990234,-81.55799865722656 61.48899841308594,-80.2040023803711 63.48099899291992,-77.84400177001953 C65.47200012207031,-75.48500061035156 66.31500244140625,-72.38600158691406 65.8010025024414,-69.34300231933594z"></path></g><g opacity="1" transform="matrix(1,0,0,1,405.6009826660156,114.78099822998047)"><path fill="rgb(48,2,79)" fill-opacity="1" d=" M33.9640007019043,-41.255001068115234 C33.762001037597656,-40.183998107910156 33.20000076293945,-39.21900177001953 32.375,-38.52799987792969 C31.549999237060547,-37.83399963378906 30.490999221801758,-37.448001861572266 29.402999877929688,-37.448001861572266 C29.402999877929688,-37.448001861572266 1.6679999828338623,-37.448001861572266 1.6679999828338623,-37.448001861572266 C0.29899999499320984,-37.448001861572266 -0.9890000224113464,-38.04499816894531 -1.86899995803833,-39.0880012512207 C-2.75,-40.132999420166016 -3.125,-41.50299835205078 -2.9010000228881836,-42.85100173950195 C-2.9010000228881836,-42.85100173950195 6.800000190734863,-100.2020034790039 6.800000190734863,-100.2020034790039 C6.800000190734863,-100.2020034790039 -72.83200073242188,-100.00700378417969 -72.83200073242188,-100.00700378417969 C-72.83200073242188,-100.00700378417969 -119.16300201416016,100.2020034790039 -119.16300201416016,100.2020034790039 C-119.16300201416016,100.2020034790039 -26.983999252319336,93.49800109863281 -26.983999252319336,93.49800109863281 C-26.983999252319336,93.49800109863281 -16.613000869750977,39.25899887084961 -16.613000869750977,39.25899887084961 C-16.195999145507812,37.08399963378906 -14.284000396728516,35.505001068115234 -12.062000274658203,35.505001068115234 C-12.062000274658203,35.505001068115234 15.710000038146973,35.505001068115234 15.710000038146973,35.505001068115234 C18.1560001373291,35.505001068115234 20.184999465942383,37.41299819946289 20.333999633789062,39.847999572753906 C20.35300064086914,40.20800018310547 20.339000701904297,40.55500030517578 20.284000396728516,40.8849983215332 C20.284000396728516,40.8849983215332 12.48900032043457,88.81400299072266 12.48900032043457,88.81400299072266 C12.48900032043457,88.81400299072266 87.88999938964844,81.27100372314453 87.88999938964844,81.27100372314453 C87.88999938964844,81.27100372314453 119.16300201416016,-100.00700378417969 119.16300201416016,-100.00700378417969 C119.16300201416016,-100.00700378417969 44.457000732421875,-100.00700378417969 44.457000732421875,-100.00700378417969 C44.457000732421875,-100.00700378417969 33.9640007019043,-41.255001068115234 33.9640007019043,-41.255001068115234z"></path></g><g opacity="1" transform="matrix(1,0,0,1,654.0390014648438,109.80699920654297)"><path fill="rgb(48,2,79)" fill-opacity="1" d=" M0.0010000000474974513,-109.55699920654297 C-68.11699676513672,-109.55699920654297 -123.33899688720703,-60.50699996948242 -123.33899688720703,0 C-123.33899688720703,60.50600051879883 -68.11699676513672,109.55699920654297 0.0010000000474974513,109.55699920654297 C68.11900329589844,109.55699920654297 123.33899688720703,60.50600051879883 123.33899688720703,0 C123.33899688720703,-60.50699996948242 68.11900329589844,-109.55699920654297 0.0010000000474974513,-109.55699920654297z"></path></g><g opacity="1" transform="matrix(1,0,0,1,911.7060546875,122.92900085449219)"><path fill="rgb(48,2,79)" fill-opacity="1" d=" M4.558000087738037,-102.52300262451172 C4.558000087738037,-102.52300262451172 15.491000175476074,-47.492000579833984 15.491000175476074,-47.492000579833984 C15.795000076293945,-46.10200119018555 15.468000411987305,-44.68899917602539 14.600000381469727,-43.611000061035156 C12.819999694824219,-41.402000427246094 -1.61899995803833,-41.374000549316406 -3.3949999809265137,-43.70199966430664 C-3.3949999809265137,-43.70199966430664 -43.560001373291016,-102.58699798583984 -43.560001373291016,-102.58699798583984 C-43.560001373291016,-102.58699798583984 -123.38099670410156,-102.52300262451172 -123.38099670410156,-102.52300262451172 C-123.38099670410156,-102.52300262451172 -95.43099975585938,81.85199737548828 -95.43099975585938,81.85199737548828 C-95.43099975585938,81.85199737548828 -30.985000610351562,87.38400268554688 -30.985000610351562,87.38400268554688 C-30.985000610351562,87.38400268554688 -40.32600021362305,33.82699966430664 -40.32600021362305,33.82699966430664 C-40.41999816894531,33.42900085449219 -40.43299865722656,33.04899978637695 -40.43299865722656,32.803001403808594 C-40.400001525878906,32.2140007019043 -40.369998931884766,31.965999603271484 -40.30699920654297,31.726999282836914 C-40.15800094604492,31.211000442504883 -40.04499816894531,30.895000457763672 -39.854000091552734,30.562999725341797 C-39.854000091552734,30.562999725341797 -38.69499969482422,29.224000930786133 -38.69499969482422,29.224000930786133 C-38.2400016784668,28.893999099731445 -37.99300003051758,28.74799919128418 -37.73400115966797,28.62700080871582 C-37.73400115966797,28.62700080871582 -35.95399856567383,28.20800018310547 -35.95399856567383,28.20800018310547 C-35.87799835205078,28.20599937438965 -35.814998626708984,28.202999114990234 -35.75400161743164,28.202999114990234 C-35.52299880981445,28.202999114990234 -21.17300033569336,28.222000122070312 -21.05699920654297,28.2450008392334 C-21.05699920654297,28.2450008392334 -19.445999145507812,28.70400047302246 -19.445999145507812,28.70400047302246 C-19.445999145507812,28.70400047302246 -18.816999435424805,29.118999481201172 -18.816999435424805,29.118999481201172 C-18.30699920654297,29.541000366210938 -18.08099937438965,29.781999588012695 -17.878999710083008,30.04400062561035 C-17.878999710083008,30.04400062561035 20.652999877929688,92.68800354003906 20.652999877929688,92.68800354003906 C20.652999877929688,92.68800354003906 123.38099670410156,102.58699798583984 123.38099670410156,102.58699798583984 C123.38099670410156,102.58699798583984 71.69200134277344,-102.52300262451172 71.69200134277344,-102.52300262451172 C71.69200134277344,-102.52300262451172 4.558000087738037,-102.52300262451172 4.558000087738037,-102.52300262451172z"></path></g><g opacity="1" transform="matrix(1.0000052452087402,0.000004524230462266132,-0.000004524230462266132,1.0000052452087402,1157.8170166015625,159.5391845703125)"><path fill="rgb(48,2,79)" fill-opacity="1" d=" M115.56600189208984,42.01300048828125 C115.56600189208984,42.01300048828125 8.401000022888184,42.060001373291016 8.401000022888184,42.060001373291016 C6.183000087738037,42.060001373291016 4.26800012588501,40.48099899291992 3.8489999771118164,38.305999755859375 C3.8489999771118164,38.305999755859375 -1.7170000076293945,9.755999565124512 -1.7170000076293945,9.755999565124512 C-1.9809999465942383,8.38700008392334 -1.6230000257492065,6.991000175476074 -0.7429999709129333,5.920000076293945 C0.14300000667572021,4.848999977111816 1.4450000524520874,4.235000133514404 2.8329999446868896,4.235000133514404 C2.8329999446868896,4.235000133514404 107.3740005493164,4.235000133514404 107.3740005493164,4.235000133514404 C107.3740005493164,4.235000133514404 91.66600036621094,-49.47200012207031 91.66600036621094,-49.47200012207031 C91.66600036621094,-49.47200012207031 -14.27400016784668,-49.29199981689453 -14.27400016784668,-49.29199981689453 C-16.481000900268555,-49.29199981689453 -18.39299964904785,-50.86600112915039 -18.81800079345703,-53.034000396728516 C-18.81800079345703,-53.034000396728516 -24.392000198364258,-81.59600067138672 -24.392000198364258,-81.59600067138672 C-24.65399932861328,-82.96499633789062 -24.29800033569336,-84.36100006103516 -23.415000915527344,-85.43199920654297 C-22.530000686645508,-86.50299835205078 -21.226999282836914,-87.11699676513672 -19.841999053955078,-87.11699676513672 C-19.841999053955078,-87.11699676513672 83.50199890136719,-87.11699676513672 83.50199890136719,-87.11699676513672 C83.50199890136719,-87.11699676513672 66.88800048828125,-144.89700317382812 66.88800048828125,-144.89700317382812 C66.88800048828125,-144.89700317382812 -128.64500427246094,-144.76499938964844 -128.64500427246094,-144.76499938964844 C-133.89300537109375,-144.76499938964844 -138.82400512695312,-142.4409942626953 -142.1649932861328,-138.38699340820312 C-145.5070037841797,-134.33299255371094 -146.84800720214844,-129.05099487304688 -145.843994140625,-123.89399719238281 C-145.843994140625,-123.89399719238281 -89.12899780273438,93.99500274658203 -89.12899780273438,93.99500274658203 C-87.71900177001953,101.23600006103516 -81.875,106.85099792480469 -74.59100341796875,107.9729995727539 C-74.59100341796875,107.9729995727539 146.84800720214844,144.89700317382812 146.84800720214844,144.89700317382812 C146.84800720214844,144.89700317382812 115.56600189208984,42.01300048828125 115.56600189208984,42.01300048828125z"></path></g></g><g transform="matrix(1,0,0,1,76.52899169921875,403.551025390625)" opacity="1" style="display: block;"><g opacity="1" transform="matrix(1,0,0,1,683.7830200195312,222.82000732421875)"><path fill="rgb(48,2,79)" fill-opacity="1" d=" M362.4280090332031,137.31399536132812 C359.7640075683594,148.6179962158203 349.05499267578125,154.95899963378906 336.2309875488281,154.95899963378906 C336.2309875488281,154.95899963378906 -329.1820068359375,154.95899963378906 -329.1820068359375,154.95899963378906 C-342.5690002441406,154.95899963378906 -353.62701416015625,148.0399932861328 -355.6570129394531,135.78900146484375 C-355.77899169921875,135.86399841308594 -355.90399169921875,135.93800354003906 -356.0299987792969,136.00999450683594 C-356.0299987792969,136.00999450683594 -356.0299987792969,210.072998046875 -356.0299987792969,210.072998046875 C-356.0299987792969,224.9010009765625 -342.84698486328125,246.2310028076172 -328.0190124511719,246.2310028076172 C-328.0190124511719,246.2310028076172 337.3949890136719,246.2310028076172 337.3949890136719,246.2310028076172 C352.22100830078125,246.2310028076172 363.08099365234375,224.9010009765625 363.08099365234375,210.072998046875 C363.08099365234375,210.072998046875 363.08099365234375,137.73500061035156 363.08099365234375,137.73500061035156 C362.85198974609375,137.60800170898438 362.6470031738281,137.45399475097656 362.4280090332031,137.31399536132812z M681.541015625,128.78900146484375 C681.541015625,128.78900146484375 650.4169921875,22.996999740600586 650.4169921875,22.996999740600586 C648.8629760742188,16.003000259399414 644.968017578125,9.95300006866455 639.5070190429688,5.732999801635742 C642.6680297851562,-0.5099999904632568 643.5659790039062,-7.833000183105469 641.958984375,-15.032999992370605 C641.958984375,-15.032999992370605 626.5460205078125,-68.35199737548828 626.5460205078125,-68.35199737548828 C624.9959716796875,-75.34200286865234 621.10302734375,-81.38999938964844 615.655029296875,-85.60700225830078 C618.8209838867188,-91.7750015258789 619.7639770507812,-98.87100219726562 618.2219848632812,-105.79900360107422 C618.2219848632812,-105.79900360107422 601.7730102539062,-123.77799987792969 601.7730102539062,-123.77799987792969 C598.7169799804688,-137.51600646972656 586.531005859375,-147.29100036621094 572.4580078125,-147.29100036621094 C572.4580078125,-147.29100036621094 376.7619934082031,-163.29100036621094 376.7619934082031,-163.29100036621094 C367.16400146484375,-163.29100036621094 357.927001953125,-160.4409942626953 350.1050109863281,-155.15699768066406 C344.5979919433594,-160.29400634765625 337.24798583984375,-163.29299926757812 329.58599853515625,-163.29299926757812 C329.58599853515625,-163.29299926757812 252.61199951171875,-187.29299926757812 252.61199951171875,-187.29299926757812 C252.61199951171875,-187.29299926757812 247.42100524902344,-200.83099365234375 247.42100524902344,-200.83099365234375 C245.68299865722656,-211.375 236.65899658203125,-222.57000732421875 225.97500610351562,-222.57000732421875 C225.97500610351562,-222.57000732421875 -234.83399963378906,-222.57000732421875 -234.83399963378906,-222.57000732421875 C-245.52200317382812,-222.57000732421875 -254.54100036621094,-215.47300720214844 -256.25799560546875,-205.05999755859375 C-256.25799560546875,-205.05999755859375 -261.96600341796875,-187.26800537109375 -261.96600341796875,-187.26800537109375 C-265.8599853515625,-189.06500244140625 -319.64801025390625,-167.29299926757812 -319.64801025390625,-167.29299926757812 C-327.18798828125,-167.29299926757812 -334.2980041503906,-164.5070037841797 -339.7349853515625,-159.60499572753906 C-347.35400390625,-164.59800720214844 -356.2879943847656,-167.29100036621094 -365.51300048828125,-167.29100036621094 C-365.51300048828125,-167.29100036621094 -562.5170288085938,-147.29100036621094 -562.5170288085938,-147.29100036621094 C-576.8099975585938,-147.29100036621094 -589.1959838867188,-137.11399841308594 -591.9749755859375,-123.08999633789062 C-591.9749755859375,-123.08999633789062 -681.7849731445312,118.26000213623047 -681.7849731445312,118.26000213623047 C-683.5330200195312,127.11299896240234 -681.2550048828125,136.18299865722656 -675.5339965820312,143.14599609375 C-674.1829833984375,144.79400634765625 -672.6240234375,146.3159942626953 -670.8939819335938,147.677001953125 C-663.10498046875,156.01800537109375 -553.3350219726562,199.14100646972656 -516.9099731445312,217.01400756835938 C-509.3030090332031,220.74600219726562 -500.2929992675781,220.1929931640625 -493.1889953613281,215.5760040283203 C-493.1889953613281,215.5760040283203 -423.3659973144531,183.82000732421875 -423.3659973144531,183.82000732421875 C-420.1319885253906,181.71800231933594 -417.9649963378906,178.31900024414062 -417.42401123046875,174.50100708007812 C-417.42401123046875,174.50100708007812 -415.06201171875,153.1699981689453 -415.06201171875,153.1699981689453 C-414.1050109863281,152.7480010986328 -384.8819885253906,139.25 -384.22900390625,138.9600067138672 C-374.947998046875,134.83900451660156 -373.61700439453125,128.27499389648438 -373.61700439453125,121 C-373.61700439453125,121 -373.61700439453125,104.91000366210938 -373.61700439453125,104.91000366210938 C-373.61700439453125,96.51799774169922 -368.9960021972656,84.65699768066406 -353.76300048828125,81.05000305175781 C-353.76300048828125,81.05000305175781 -353.72900390625,81.04399871826172 -353.72900390625,81.04399871826172 C-353.3680114746094,92.36900329589844 -349.531005859375,111.21499633789062 -342.9339904785156,118.50800323486328 C-337.2200012207031,124.82499694824219 -329.79998779296875,128.30499267578125 -322.04400634765625,128.30499267578125 C-322.04400634765625,128.30499267578125 328.9679870605469,128.30499267578125 328.9679870605469,128.30499267578125 C336.5740051269531,128.30499267578125 343.87799072265625,124.9469985961914 349.5400085449219,118.8499984741211 C355.44500732421875,112.49199676513672 356.43798828125,90.72000122070312 357.58099365234375,81.0469970703125 C358.010009765625,81.7770004272461 377.9360046386719,81.41500091552734 377.9360046386719,101.98200225830078 C377.9360046386719,101.98200225830078 380.8299865722656,125.58100128173828 380.8299865722656,125.58100128173828 C381.4549865722656,134.94000244140625 379.3800048828125,143.33799743652344 394.8609924316406,155.17599487304688 C394.8609924316406,155.17599487304688 476.24200439453125,209.7030029296875 476.24200439453125,209.7030029296875 C481.8240051269531,214.14100646972656 495.0409851074219,222.5709991455078 504.03900146484375,217.18699645996094 C506.3970031738281,215.77499389648438 672.6380004882812,157.86500549316406 673.656982421875,156.58900451660156 C679.3870239257812,149.44700622558594 683.5330200195312,137.7270050048828 681.541015625,128.78900146484375z"></path></g></g><g transform="matrix(1,0,0,1,105.60504150390625,452.2080078125)" opacity="1" style="display: block;"><g opacity="1" transform="matrix(1,0,0,1,152.32699584960938,155.38099670410156)"><path fill="rgb(255,255,255)" fill-opacity="1" d=" M147.48599243164062,-134.61599731445312 C144.26600646972656,-138.4250030517578 139.55599975585938,-140.60800170898438 134.57000732421875,-140.60800170898438 C134.57000732421875,-140.60800170898438 -62.42499923706055,-140.60800170898438 -62.42499923706055,-140.60800170898438 C-62.42499923706055,-140.60800170898438 -152.07699584960938,140.60800170898438 -152.07699584960938,140.60800170898438 C-152.07699584960938,140.60800170898438 -59.26300048828125,131.98500061035156 -59.26300048828125,131.98500061035156 C-51.25,130.7530059814453 -44.90399932861328,124.84700012207031 -43.090999603271484,116.94400024414062 C-43.090999603271484,116.94400024414062 -34.25299835205078,78.36199951171875 -34.25299835205078,78.36199951171875 C-33.742000579833984,76.11199951171875 15.649999618530273,76.0260009765625 89.80400085449219,65.27999877929688 C99.83399963378906,63.821998596191406 107.70800018310547,56.124000549316406 109.38500213623047,46.124000549316406 C109.38500213623047,46.124000549316406 151.2469940185547,-120.88999938964844 151.2469940185547,-120.88999938964844 C152.07699584960938,-125.80599975585938 150.7050018310547,-130.81100463867188 147.48599243164062,-134.61599731445312z M65.8010025024414,-69.34300231933594 C65.8010025024414,-69.34300231933594 65.8010025024414,-69.34100341796875 65.8010025024414,-69.34100341796875 C65.8010025024414,-69.34100341796875 55.676998138427734,-10.11299991607666 55.676998138427734,-10.11299991607666 C54.81399917602539,-5.073999881744385 50.47999954223633,-1.4170000553131104 45.36600112915039,-1.4170000553131104 C45.36600112915039,-1.4170000553131104 -11.449000358581543,3.4820001125335693 -12.333999633789062,2.3970000743865967 C-13.217000007629395,1.315000057220459 4.013000011444092,-77.85800170898438 4.013000011444092,-77.85800170898438 C4.4629998207092285,-80.00499725341797 6.369999885559082,-81.55799865722656 8.553000450134277,-81.55799865722656 C8.553000450134277,-81.55799865722656 55.4900016784668,-81.55799865722656 55.4900016784668,-81.55799865722656 C58.577999114990234,-81.55799865722656 61.48899841308594,-80.2040023803711 63.48099899291992,-77.84400177001953 C65.47200012207031,-75.48500061035156 66.31500244140625,-72.38600158691406 65.8010025024414,-69.34300231933594z"></path></g><g opacity="1" transform="matrix(1,0,0,1,405.6009826660156,114.78099822998047)"><path fill="rgb(255,255,255)" fill-opacity="1" d=" M33.9640007019043,-41.255001068115234 C33.762001037597656,-40.183998107910156 33.20000076293945,-39.21900177001953 32.375,-38.52799987792969 C31.549999237060547,-37.83399963378906 30.490999221801758,-37.448001861572266 29.402999877929688,-37.448001861572266 C29.402999877929688,-37.448001861572266 1.6679999828338623,-37.448001861572266 1.6679999828338623,-37.448001861572266 C0.29899999499320984,-37.448001861572266 -0.9890000224113464,-38.04499816894531 -1.86899995803833,-39.0880012512207 C-2.75,-40.132999420166016 -3.125,-41.50299835205078 -2.9010000228881836,-42.85100173950195 C-2.9010000228881836,-42.85100173950195 6.800000190734863,-100.2020034790039 6.800000190734863,-100.2020034790039 C6.800000190734863,-100.2020034790039 -72.83200073242188,-100.00700378417969 -72.83200073242188,-100.00700378417969 C-72.83200073242188,-100.00700378417969 -119.16300201416016,100.2020034790039 -119.16300201416016,100.2020034790039 C-119.16300201416016,100.2020034790039 -26.983999252319336,93.49800109863281 -26.983999252319336,93.49800109863281 C-26.983999252319336,93.49800109863281 -16.613000869750977,39.25899887084961 -16.613000869750977,39.25899887084961 C-16.195999145507812,37.08399963378906 -14.284000396728516,35.505001068115234 -12.062000274658203,35.505001068115234 C-12.062000274658203,35.505001068115234 15.710000038146973,35.505001068115234 15.710000038146973,35.505001068115234 C18.1560001373291,35.505001068115234 20.184999465942383,37.41299819946289 20.333999633789062,39.847999572753906 C20.35300064086914,40.20800018310547 20.339000701904297,40.55500030517578 20.284000396728516,40.8849983215332 C20.284000396728516,40.8849983215332 12.48900032043457,88.81400299072266 12.48900032043457,88.81400299072266 C12.48900032043457,88.81400299072266 87.88999938964844,81.27100372314453 87.88999938964844,81.27100372314453 C87.88999938964844,81.27100372314453 119.16300201416016,-100.00700378417969 119.16300201416016,-100.00700378417969 C119.16300201416016,-100.00700378417969 44.457000732421875,-100.00700378417969 44.457000732421875,-100.00700378417969 C44.457000732421875,-100.00700378417969 33.9640007019043,-41.255001068115234 33.9640007019043,-41.255001068115234z"></path></g><g opacity="1" transform="matrix(1,0,0,1,654.0390014648438,109.80699920654297)"><path fill="rgb(255,255,255)" fill-opacity="1" d=" M0.0010000000474974513,-109.55699920654297 C-68.11699676513672,-109.55699920654297 -123.33899688720703,-60.50699996948242 -123.33899688720703,0 C-123.33899688720703,60.50600051879883 -68.11699676513672,109.55699920654297 0.0010000000474974513,109.55699920654297 C68.11900329589844,109.55699920654297 123.33899688720703,60.50600051879883 123.33899688720703,0 C123.33899688720703,-60.50699996948242 68.11900329589844,-109.55699920654297 0.0010000000474974513,-109.55699920654297z"></path></g><g opacity="1" transform="matrix(1,0,0,1,911.7060546875,122.92900085449219)"><path fill="rgb(255,255,255)" fill-opacity="1" d=" M4.558000087738037,-102.52300262451172 C4.558000087738037,-102.52300262451172 15.491000175476074,-47.492000579833984 15.491000175476074,-47.492000579833984 C15.795000076293945,-46.10200119018555 15.468000411987305,-44.68899917602539 14.600000381469727,-43.611000061035156 C12.819999694824219,-41.402000427246094 -1.61899995803833,-41.374000549316406 -3.3949999809265137,-43.70199966430664 C-3.3949999809265137,-43.70199966430664 -43.560001373291016,-102.58699798583984 -43.560001373291016,-102.58699798583984 C-43.560001373291016,-102.58699798583984 -123.38099670410156,-102.52300262451172 -123.38099670410156,-102.52300262451172 C-123.38099670410156,-102.52300262451172 -95.43099975585938,81.85199737548828 -95.43099975585938,81.85199737548828 C-95.43099975585938,81.85199737548828 -30.985000610351562,87.38400268554688 -30.985000610351562,87.38400268554688 C-30.985000610351562,87.38400268554688 -40.32600021362305,33.82699966430664 -40.32600021362305,33.82699966430664 C-40.41999816894531,33.42900085449219 -40.43299865722656,33.04899978637695 -40.43299865722656,32.803001403808594 C-40.400001525878906,32.2140007019043 -40.369998931884766,31.965999603271484 -40.30699920654297,31.726999282836914 C-40.15800094604492,31.211000442504883 -40.04499816894531,30.895000457763672 -39.854000091552734,30.562999725341797 C-39.854000091552734,30.562999725341797 -38.69499969482422,29.224000930786133 -38.69499969482422,29.224000930786133 C-38.2400016784668,28.893999099731445 -37.99300003051758,28.74799919128418 -37.73400115966797,28.62700080871582 C-37.73400115966797,28.62700080871582 -35.95399856567383,28.20800018310547 -35.95399856567383,28.20800018310547 C-35.87799835205078,28.20599937438965 -35.814998626708984,28.202999114990234 -35.75400161743164,28.202999114990234 C-35.52299880981445,28.202999114990234 -21.17300033569336,28.222000122070312 -21.05699920654297,28.2450008392334 C-21.05699920654297,28.2450008392334 -19.445999145507812,28.70400047302246 -19.445999145507812,28.70400047302246 C-19.445999145507812,28.70400047302246 -18.816999435424805,29.118999481201172 -18.816999435424805,29.118999481201172 C-18.30699920654297,29.541000366210938 -18.08099937438965,29.781999588012695 -17.878999710083008,30.04400062561035 C-17.878999710083008,30.04400062561035 20.652999877929688,92.68800354003906 20.652999877929688,92.68800354003906 C20.652999877929688,92.68800354003906 123.38099670410156,102.58699798583984 123.38099670410156,102.58699798583984 C123.38099670410156,102.58699798583984 71.69200134277344,-102.52300262451172 71.69200134277344,-102.52300262451172 C71.69200134277344,-102.52300262451172 4.558000087738037,-102.52300262451172 4.558000087738037,-102.52300262451172z"></path></g><g opacity="1" transform="matrix(1,0,0,1,1157.8170166015625,159.53799438476562)"><path fill="rgb(255,255,255)" fill-opacity="1" d=" M115.56600189208984,42.01300048828125 C115.56600189208984,42.01300048828125 8.401000022888184,42.060001373291016 8.401000022888184,42.060001373291016 C6.183000087738037,42.060001373291016 4.26800012588501,40.48099899291992 3.8489999771118164,38.305999755859375 C3.8489999771118164,38.305999755859375 -1.7170000076293945,9.755999565124512 -1.7170000076293945,9.755999565124512 C-1.9809999465942383,8.38700008392334 -1.6230000257492065,6.991000175476074 -0.7429999709129333,5.920000076293945 C0.14300000667572021,4.848999977111816 1.4450000524520874,4.235000133514404 2.8329999446868896,4.235000133514404 C2.8329999446868896,4.235000133514404 107.3740005493164,4.235000133514404 107.3740005493164,4.235000133514404 C107.3740005493164,4.235000133514404 91.66600036621094,-49.47200012207031 91.66600036621094,-49.47200012207031 C91.66600036621094,-49.47200012207031 -14.27400016784668,-49.29199981689453 -14.27400016784668,-49.29199981689453 C-16.481000900268555,-49.29199981689453 -18.39299964904785,-50.86600112915039 -18.81800079345703,-53.034000396728516 C-18.81800079345703,-53.034000396728516 -24.392000198364258,-81.59600067138672 -24.392000198364258,-81.59600067138672 C-24.65399932861328,-82.96499633789062 -24.29800033569336,-84.36100006103516 -23.415000915527344,-85.43199920654297 C-22.530000686645508,-86.50299835205078 -21.226999282836914,-87.11699676513672 -19.841999053955078,-87.11699676513672 C-19.841999053955078,-87.11699676513672 83.50199890136719,-87.11699676513672 83.50199890136719,-87.11699676513672 C83.50199890136719,-87.11699676513672 66.88800048828125,-144.89700317382812 66.88800048828125,-144.89700317382812 C66.88800048828125,-144.89700317382812 -128.64500427246094,-144.76499938964844 -128.64500427246094,-144.76499938964844 C-133.89300537109375,-144.76499938964844 -138.82400512695312,-142.4409942626953 -142.1649932861328,-138.38699340820312 C-145.5070037841797,-134.33299255371094 -146.84800720214844,-129.05099487304688 -145.843994140625,-123.89399719238281 C-145.843994140625,-123.89399719238281 -89.12899780273438,93.99500274658203 -89.12899780273438,93.99500274658203 C-87.71900177001953,101.23600006103516 -81.875,106.85099792480469 -74.59100341796875,107.9729995727539 C-74.59100341796875,107.9729995727539 146.84800720214844,144.89700317382812 146.84800720214844,144.89700317382812 C146.84800720214844,144.89700317382812 115.56600189208984,42.01300048828125 115.56600189208984,42.01300048828125z"></path></g></g><g transform="matrix(1,0,0,1,654.0070190429688,468.0769958496094)" opacity="1" style="display: block;"><path fill="rgb(48,2,79)" fill-opacity="1" d=" M91.54,161.87 C84.73,169.51 85.4,181.22 93.04,188.03 C100.68,194.84 112.39,194.17 119.21,186.53 C126.02,178.89 125.35,167.18 117.7,160.37 C110.06,153.55 98.35,154.22 91.54,161.87z M43.89,131.95 C33.65,131.95 25.35,140.25 25.35,150.49 C25.35,160.72 33.65,169.02 43.89,169.02 C54.13,169.02 62.42,160.72 62.42,150.49 C62.42,140.25 54.13,131.95 43.89,131.95z M4.95,84.16 C-1.86,91.8 -1.19,103.51 6.45,110.33 C14.09,117.14 25.81,116.47 32.62,108.83 C39.43,101.18 38.76,89.47 31.12,82.66 C23.48,75.85 11.76,76.52 4.95,84.16z M62.42,40.96 C62.42,30.72 54.12,22.42 43.89,22.42 C33.65,22.42 25.35,30.72 25.35,40.96 C25.35,51.19 33.65,59.49 43.89,59.49 C54.12,59.49 62.42,51.19 62.42,40.96z M119.21,31.12 C126.02,23.48 125.35,11.76 117.71,4.95 C110.06,-1.86 98.35,-1.19 91.54,6.45 C84.73,14.09 85.4,25.81 93.04,32.62 C100.68,39.43 112.39,38.76 119.21,31.12z M163.19,59.49 C173.43,59.49 181.72,51.19 181.72,40.96 C181.72,30.72 173.43,22.42 163.19,22.42 C152.95,22.42 144.66,30.72 144.66,40.96 C144.66,51.19 152.95,59.49 163.19,59.49z M207.27,108.82 C214.08,101.18 213.41,89.47 205.77,82.66 C198.13,75.84 186.41,76.52 179.6,84.16 C172.79,91.8 173.46,103.51 181.1,110.32 C188.74,117.14 200.46,116.46 207.27,108.82z M144.66,150.49 C144.66,160.72 152.96,169.02 163.19,169.02 C173.43,169.02 181.73,160.72 181.73,150.49 C181.73,140.25 173.43,131.95 163.19,131.95 C152.96,131.95 144.66,140.25 144.66,150.49z M105.62,53.17 C79.37,53.17 58.1,72.07 58.1,95.39 C58.1,118.7 79.37,137.6 105.62,137.6 C131.87,137.6 153.14,118.7 153.14,95.39 C153.14,72.07 131.87,53.17 105.62,53.17z"></path><g opacity="1" transform="matrix(1,0,0,1,0,0)"><g opacity="1" transform="matrix(1,0,0,1,-57.81999206542969,23.7130126953125)"></g><g opacity="1" transform="matrix(1,0,0,1,-61.48400115966797,-23.7130126953125)"></g><g opacity="1" transform="matrix(1,0,0,1,-25.10300064086914,-53.9949951171875)"></g><g opacity="1" transform="matrix(1,0,0,1,25.10300064086914,-55.534996032714844)"></g><g opacity="1" transform="matrix(1,0,0,1,61.48400115966797,-22.172000885009766)"></g><g opacity="1" transform="matrix(1,0,0,1,57.81999206542969,22.172000885009766)"></g><g opacity="1" transform="matrix(1,0,0,1,30.248001098632812,55.534996032714844)"></g><g opacity="1" transform="matrix(1,0,0,1,-30.248001098632812,53.9949951171875)"></g></g><g opacity="1" transform="matrix(1,0,0,1,105.61900329589844,95.38800048828125)"><path fill="rgb(48,2,79)" fill-opacity="1" d=" M0,-42.2130012512207 C-26.246000289916992,-42.2130012512207 -47.52199935913086,-23.31399917602539 -47.52199935913086,-0.0010000000474974513 C-47.52199935913086,23.312999725341797 -26.246000289916992,42.2130012512207 0,42.2130012512207 C26.246000289916992,42.2130012512207 47.52199935913086,23.312999725341797 47.52199935913086,-0.0010000000474974513 C47.52199935913086,-23.31399917602539 26.246000289916992,-42.2130012512207 0,-42.2130012512207z"></path></g></g></g></svg>