<svg xmlns="http://www.w3.org/2000/svg" viewBox="0 0 860 500" width="860" height="500" preserveAspectRatio="xMidYMid meet" style="width: 100%; height: 100%; transform: translate3d(0px, 0px, 0px);"><defs><clipPath id="__lottie_element_200"><rect width="860" height="500" x="0" y="0"></rect></clipPath></defs><g clip-path="url(#__lottie_element_200)"><g transform="matrix(0.9998099207878113,0.0003986675583291799,-0.00040150200948119164,0.9935064911842346,553.7067260742188,250.1258544921875)" opacity="1" style="display: block;"><g opacity="1" transform="matrix(1,0,0,1,93.5459976196289,91.3290023803711)"><path stroke-linecap="butt" stroke-linejoin="miter" fill-opacity="0" stroke-miterlimit="10" stroke="rgb(32,18,85)" stroke-opacity="1" stroke-width="10" d=" M-51.626495361328125,25.08444595336914 C-47.60249710083008,29.32144546508789 -44.79706573486328,38.21647262573242 -25.90395736694336,41.17211151123047 C-19.026803970336914,42.45391845703125 -13.508999824523926,42.30061340332031 -7.947000026702881,41.15561294555664 C-2.384999990463257,40.009613037109375 1.7891486883163452,37.23492431640625 2.7481486797332764,31.637924194335938 C3.709148645401001,26.040924072265625 0.07199999690055847,20.803773880004883 -5.581999778747559,21.327774047851562 C-10.529999732971191,21.784774780273438 -13.89168930053711,26.010923385620117 -13.682689666748047,30.975923538208008 C-13.471689224243164,35.93992233276367 -10.529000282287598,38.992610931396484 -6.822000026702881,42.30061340332031 C4.110000133514404,52.05861282348633 21.364459991455078,53.861202239990234 32.508460998535156,44.3452033996582 C43.65045928955078,34.830204010009766 45.2725830078125,17.78571891784668 34.23458480834961,8.146718978881836 C29.753583908081055,4.231719017028809 24.85026741027832,2.5029489994049072 20.472267150878906,6.534948825836182 C17.07626724243164,9.662948608398438 17.220590591430664,13.246203422546387 19.599590301513672,17.20220375061035 C21.97859001159668,21.159202575683594 24.62647819519043,22.215892791748047 29.04747772216797,23.54789161682129 C39.15447998046875,26.592891693115234 48.397918701171875,23.556537628173828 56.07592010498047,16.312538146972656 C63.7529182434082,9.068538665771484 66.88362884521484,-3.941002130508423 62.71462631225586,-13.638002395629883 C58.54562759399414,-23.334001541137695 49.19285583496094,-25.857458114624023 41.508331298828125,-24.705442428588867 C36.499969482421875,-24.012435913085938 32.351806640625,-22.14858627319336 31.70480728149414,-17.127586364746094 C30.715808868408203,-9.44058609008789 39.04079055786133,-6.8511643409729 46.436790466308594,-9.170164108276367 C55.33578872680664,-11.960164070129395 58.28606414794922,-19.375839233398438 55.276336669921875,-28.17146110534668 C51.15983581542969,-39.757869720458984 47.2652587890625,-41.32331466674805 39.86137390136719,-44.281131744384766 C27.638084411621094,-49.402992248535156 18.902938842773438,-50.722984313964844 13.392205238342285,-40.95271682739258 C12.949385643005371,-33.37900924682617 23.719831466674805,-31.13557243347168 28.113832473754883,-36.35557174682617 C32.506832122802734,-41.57657241821289 30.652000427246094,-52.3854866027832 26.67799949645996,-57.93248748779297 C22.70400047302246,-63.47948455810547 16.54599952697754,-61.434242248535156 10.586999893188477,-64.75624084472656 C6.334000110626221,-67.12824249267578 2.0810000896453857,-69.4992446899414 -2.171999931335449,-71.8702392578125"></path></g></g><g transform="matrix(1.0495774745941162,-0.06662197411060333,0.06707014888525009,1.042564034461975,172.3380126953125,63.86598205566406)" opacity="1" style="display: block;"><g opacity="1" transform="matrix(1,0,0,1,248.93475341796875,115.91495513916016)"><path stroke-linecap="butt" stroke-linejoin="miter" fill-opacity="0" stroke-miterlimit="10" stroke="rgb(32,18,85)" stroke-opacity="1" stroke-width="16" d=" M-123.61499786376953,-30.829999923706055 C-123.61499786376953,-30.829999923706055 -113.45099639892578,-41.55699920654297 -89.16300201416016,-37.900001525878906 C-64.18099975585938,-34.14099884033203 34.35599899291992,-14.392999649047852 102.20700073242188,15.340999603271484 C104.79199981689453,16.474000930786133 123.55400085449219,23.40399932861328 123.61599731445312,41.55699920654297 M-120.26200103759766,-36.95000076293945 C-112.63600158691406,-39.30799865722656 -104.7969970703125,-41.444000244140625 -96.81700134277344,-41.26499938964844 C-90.52999877929688,-41.125999450683594 -84.37300109863281,-39.553001403808594 -78.28299713134766,-37.98899841308594 C-42.24100112915039,-28.73699951171875 76.89800262451172,6.831999778747559 87.9729995727539,10.989999771118164 C101.1500015258789,15.937999725341797 112.98400115966797,22.974000930786133 120.6500015258789,34.77899932861328 C124.12699890136719,26.43899917602539 127.6520004272461,17.89299964904785 128.125,8.869999885559082 C128.5970001220703,-0.15299999713897705 125.43000030517578,-9.902000427246094 117.9489974975586,-14.970000267028809 C114.50399780273438,-17.30299949645996 110.42900085449219,-18.486000061035156 106.42900085449219,-19.63599967956543 C83.0979995727539,-26.33799934387207 62.21200180053711,-42.84199905395508 38.88100051879883,-49.54399871826172 C-3.688999891281128,-61.77299880981445 -48.770999908447266,-64.21900177001953 -92.25499725341797,-72.63600158691406 C-94.8949966430664,-73.14700317382812 -97.60800170898438,-73.6449966430664 -100.25499725341797,-73.1780014038086 C-105.11199951171875,-72.31999969482422 -108.80799865722656,-68.42900085449219 -111.83200073242188,-64.53399658203125 C-120.54299926757812,-53.31700134277344 -126.80400085449219,-40.20800018310547 -130.05499267578125,-26.384000778198242"></path><path fill="rgb(0,128,255)" fill-opacity="1" d=" M-120.26200103759766,-36.95000076293945 C-112.63600158691406,-39.30799865722656 -104.7969970703125,-41.444000244140625 -96.81700134277344,-41.26499938964844 C-90.52999877929688,-41.125999450683594 -84.37300109863281,-39.553001403808594 -78.28299713134766,-37.98899841308594 C-42.24100112915039,-28.73699951171875 76.89800262451172,6.831999778747559 87.9729995727539,10.989999771118164 C101.1500015258789,15.937999725341797 112.98400115966797,22.974000930786133 120.6500015258789,34.77899932861328 C124.12699890136719,26.43899917602539 127.6520004272461,17.89299964904785 128.125,8.869999885559082 C128.5970001220703,-0.15299999713897705 125.43000030517578,-9.902000427246094 117.9489974975586,-14.970000267028809 C114.50399780273438,-17.30299949645996 110.42900085449219,-18.486000061035156 106.42900085449219,-19.63599967956543 C83.0979995727539,-26.33799934387207 62.21200180053711,-42.84199905395508 38.88100051879883,-49.54399871826172 C-3.688999891281128,-61.77299880981445 -48.770999908447266,-64.21900177001953 -92.25499725341797,-72.63600158691406 C-94.8949966430664,-73.14700317382812 -97.60800170898438,-73.6449966430664 -100.25499725341797,-73.1780014038086 C-105.11199951171875,-72.31999969482422 -108.80799865722656,-68.42900085449219 -111.83200073242188,-64.53399658203125 C-120.54299926757812,-53.31700134277344 -126.80400085449219,-40.20800018310547 -130.05499267578125,-26.384000778198242"></path></g><g opacity="1" transform="matrix(1,0,0,1,246.14500427246094,115.64800262451172)"><path fill="rgb(0,188,255)" fill-opacity="1" d=" M230.16299438476562,10.279476165771484 C229.20799255371094,6.184476375579834 226.843994140625,2.8052151203155518 223.57699584960938,0.8652151823043823 C132.05799865722656,-53.464786529541016 -54.91899871826172,-108.07978820800781 -170.31900024414062,-103.3517837524414 C-174.2989959716797,-103.18878173828125 -179.19700622558594,-101.33478546142578 -182.22300720214844,-98.14378356933594 C-200.20700073242188,-79.1817855834961 -211.41700744628906,-71.41300201416016 -217.32899475097656,-60.49399948120117 C-218.9510040283203,-57.49800109863281 -220.2310028076172,-54.308998107910156 -221.13900756835938,-50.99599838256836 C-221.13900756835938,-50.99599838256836 -229.2220001220703,-21.47599983215332 -229.2220001220703,-21.47599983215332 C-230.1999969482422,-17.905000686645508 -228.49600219726562,-14.326000213623047 -225.41600036621094,-13.482000350952148 C-225.41600036621094,-13.482000350952148 -141.3070068359375,9.548999786376953 -141.3070068359375,9.548999786376953 C-138.25599670410156,10.385000228881836 -134.99099731445312,8.220999717712402 -133.98199462890625,4.692999839782715 C-133.98199462890625,4.692999839782715 -107.76100158691406,-55.04800033569336 -107.76100158691406,-55.04800033569336 C-104.48200225830078,-62.124000549316406 -97.6709976196289,-66.27799987792969 -90.9749984741211,-65.27799987792969 C-60.71500015258789,-60.755001068115234 -21.743000030517578,-52.44599914550781 3.760999917984009,-46.72100067138672 C14.265000343322754,-44.36399841308594 24.636999130249023,-41.52399826049805 34.875,-38.20199966430664 C59.737998962402344,-30.132999420166016 97.50599670410156,-17.43000030517578 125.8489990234375,-5.90500020980835 C132.1199951171875,-3.3540000915527344 135.86599731445312,3.690000057220459 135.08299255371094,11.449999809265137 C135.08299255371094,11.449999809265137 127.20999908447266,76.21499633789062 127.20999908447266,76.21499633789062 C126.28099822998047,79.76499938964844 127.98799896240234,83.29000091552734 131.03900146484375,84.1259994506836 C131.03900146484375,84.1259994506836 215.1479949951172,107.15699768066406 215.1479949951172,107.15699768066406 C218.22799682617188,108.0009994506836 221.51800537109375,105.78900146484375 222.4949951171875,102.21700286865234 C222.4949951171875,102.21700286865234 230.57899475097656,72.697998046875 230.57899475097656,72.697998046875 C231.48699951171875,69.38200378417969 232.00900268554688,65.98300170898438 232.13900756835938,62.577999114990234 C232.61900329589844,50.064998626708984 236.1269989013672,35.860477447509766 230.16299438476562,10.279476165771484z"></path></g><g opacity="1" transform="matrix(1,0,0,1,243.03399658203125,132.05799865722656)"><path fill="rgb(188,235,255)" fill-opacity="0.7783502786145345" d=" M200.4600067138672,76.66300201416016 C199.88099670410156,76.50399780273438 199.3470001220703,76.30899810791016 198.83200073242188,76.09500122070312 C198.83200073242188,76.09500122070312 152.6649932861328,63.45199966430664 152.6649932861328,63.45199966430664 C149.2790069580078,62.52399826049805 147.0709991455078,59.27000045776367 147.46200561523438,55.78099822998047 C147.46200561523438,55.78099822998047 154.2740020751953,0.4869999885559082 154.2740020751953,0.4869999885559082 C155.60299682617188,-12.670999526977539 148.91000366210938,-24.597999572753906 137.6219940185547,-29.18899917602539 C109.3489990234375,-40.68600082397461 67.27799987792969,-54.58000183105469 41.0099983215332,-63.10300064086914 C30.46500015258789,-66.5250015258789 19.632999420166016,-69.49099731445312 8.817999839782715,-71.91699981689453 C-18.14299964904785,-77.96900177001953 -62.39799880981445,-87.71199798583984 -92.56099700927734,-92.21900177001953 C-104.61199951171875,-94.0199966430664 -116.45800018310547,-87.13899993896484 -122.06099700927734,-75.04900360107422 C-122.06099700927734,-75.04900360107422 -145.24200439453125,-22.05900001525879 -145.24200439453125,-22.05900001525879 C-146.14999389648438,-20.04199981689453 -148.39199829101562,-18.986000061035156 -150.52499389648438,-19.56999969482422 C-150.52499389648438,-19.56999969482422 -205.45399475097656,-34.611000061035156 -205.45399475097656,-34.611000061035156 C-206.0050048828125,-34.689998626708984 -206.56399536132812,-34.79100036621094 -207.14300537109375,-34.94900131225586 C-207.14300537109375,-34.94900131225586 -228.18899536132812,-40.7140007019043 -228.18899536132812,-40.7140007019043 C-228.5,-39.277000427246094 -228.7790069580078,-37.875999450683594 -229.01100158691406,-36.540000915527344 C-229.16099548339844,-35.51499938964844 -229.22799682617188,-35.10499954223633 -229.2169952392578,-35.28099822998047 C-229.29400634765625,-34.62699890136719 -229.3699951171875,-33.97100067138672 -229.4320068359375,-33.314998626708984 C-229.4550018310547,-33.05699920654297 -229.47000122070312,-32.79800033569336 -229.49099731445312,-32.53900146484375 C-211.0570068359375,-26.65999984741211 -192.73399353027344,-20.402999877929688 -174.0989990234375,-15.184000015258789 C-162.79600524902344,-12.017999649047852 -151.5449981689453,-7.1579999923706055 -140.0959930419922,-3.569000005722046 C-132.7740020751953,-20.173999786376953 -121.84300231933594,-39.41699981689453 -112.69300079345703,-55.0620002746582 C-108.1510009765625,-62.827999114990234 -102.15499877929688,-69.19499969482422 -94.8239974975586,-73.19300079345703 C-92.75299835205078,-78.09400177001953 -87.8489990234375,-81.71399688720703 -81.23400115966797,-79.9020004272461 C-81.23400115966797,-79.9020004272461 -72.96499633789062,-77.63800048828125 -72.96499633789062,-77.63800048828125 C-59.40599822998047,-76.8030014038086 -45.76900100708008,-71.83399963378906 -33.05500030517578,-67.77300262451172 C-26.643999099731445,-65.7249984741211 -20.256000518798828,-63.608001708984375 -13.878000259399414,-61.45800018310547 C-13.878000259399414,-61.45800018310547 115.01899719238281,-26.163000106811523 115.01899719238281,-26.163000106811523 C119.43099975585938,-24.95400047302246 121.9489974975586,-22.05699920654297 122.93499755859375,-18.70199966430664 C128.44000244140625,-14.833999633789062 132.9720001220703,-9.836000442504883 135.31399536132812,-3.1610000133514404 C139.3730010986328,8.413000106811523 137.2010040283203,22.05299949645996 135.6790008544922,33.904998779296875 C134.3350067138672,44.37200164794922 132.05299377441406,58.742000579833984 131.56399536132812,69.29199981689453 C145.50799560546875,70.41600036621094 159.23199462890625,75.06300354003906 172.27099609375,79.6719970703125 C185.48899841308594,84.34400177001953 198.6300048828125,89.04900360107422 212.36099243164062,92.01399993896484 C216.9239959716797,92.9990005493164 220.99400329589844,93.86299896240234 225.4709930419922,94.01899719238281 C226.8300018310547,91.22599792480469 228.19200134277344,88.01000213623047 229.49099731445312,84.61199951171875 C229.49099731445312,84.61199951171875 200.4600067138672,76.66300201416016 200.4600067138672,76.66300201416016z"></path></g><g opacity="1" transform="matrix(1,0,0,1,428.218994140625,178.72000122070312)"><path stroke-linecap="butt" stroke-linejoin="miter" fill-opacity="0" stroke-miterlimit="10" stroke="rgb(188,235,255)" stroke-opacity="0.2611675953817816" stroke-width="8" d=" M-307.4700927734375,-72.51424407958984 C-307.4700927734375,-72.51424407958984 -309.9458312988281,-87.42134857177734 -320.6133728027344,-94.29961395263672 C-358.2418518066406,-118.38072967529297 -399.7076721191406,-114.3635482788086 -408.218994140625,-107.94000244140625 M50.07887268066406,14.370121002197266 C50.07887268066406,14.370121002197266 35.90428924560547,-3.8382179737091064 19.113426208496094,-8.121583938598633 C-21.770673751831055,-18.499624252319336 -33.42368698120117,-15.56891918182373 -50.37300109863281,-10.918999671936035"></path></g><g opacity="1" transform="matrix(1,0,0,1,245.76400756835938,117.54199981689453)"><path fill="rgb(32,18,85)" fill-opacity="1" d=" M-158.065673828125,-97.66659545898438 C-107.05967712402344,-97.66659545898438 -54.42020034790039,-99.3737564086914 32.67929458618164,-76.33358001708984 C103.80001831054688,-57.42277908325195 171.9258270263672,-20.74747085571289 217.54083251953125,6.332528591156006 C219.63082885742188,7.572528839111328 220.51083374023438,9.726529121398926 220.88082885742188,11.3165283203125 C226.90184020996094,37.139530181884766 224.7239990234375,54.617000579833984 224.31500244140625,65.26899719238281 C224.2050018310547,68.1449966430664 223.76199340820312,71.01799774169922 222.99899291992188,73.80699920654297 C222.99899291992188,73.80699920654297 214.99400329589844,103.04100036621094 214.99400329589844,103.04100036621094 C214.99400329589844,103.04100036621094 133.2169952392578,80.64800262451172 133.2169952392578,80.64800262451172 C133.2169952392578,80.64800262451172 133.28900146484375,80.322998046875 133.28900146484375,80.322998046875 C133.28900146484375,80.322998046875 133.36900329589844,79.66100311279297 133.36900329589844,79.66100311279297 C133.36900329589844,79.66100311279297 141.19500732421875,15.319000244140625 141.19500732421875,15.319000244140625 C141.19500732421875,15.319000244140625 141.21299743652344,15.175999641418457 141.21299743652344,15.175999641418457 C141.21299743652344,15.175999641418457 141.2270050048828,15.031999588012695 141.2270050048828,15.031999588012695 C142.30599975585938,4.317999839782715 136.7270050048828,-5.741000175476074 127.65699768066406,-9.432999610900879 C99.53500366210938,-20.867000579833984 62.40399932861328,-33.4010009765625 36.20800018310547,-41.902000427246094 C25.81100082397461,-45.2760009765625 15.130999565124512,-48.20000076293945 4.465000152587891,-50.59400177001953 C-22.40999984741211,-56.625999450683594 -60.74599838256836,-64.75700378417969 -90.77100372314453,-69.24400329589844 C-91.76399993896484,-69.39199829101562 -92.77999877929688,-69.46700286865234 -93.78700256347656,-69.46700286865234 C-102.57499694824219,-69.46700286865234 -110.87799835205078,-63.801998138427734 -114.94100189208984,-55.03300094604492 C-114.94100189208984,-55.03300094604492 -114.9729995727539,-54.96500015258789 -114.9729995727539,-54.96500015258789 C-114.9729995727539,-54.96500015258789 -115.00399780273438,-54.895999908447266 -115.00399780273438,-54.895999908447266 C-115.00399780273438,-54.895999908447266 -139.96299743652344,0.5299999713897705 -139.96299743652344,0.5299999713897705 C-139.96299743652344,0.5299999713897705 -140.26400756835938,1.1990000009536743 -140.26400756835938,1.1990000009536743 C-140.26400756835938,1.1990000009536743 -140.4949951171875,1.8960000276565552 -140.4949951171875,1.8960000276565552 C-140.822998046875,2.8919999599456787 -141.843994140625,4.235000133514404 -142.74600219726562,5.081999778747559 C-142.74600219726562,5.081999778747559 -223.2209930419922,-16.95400047302246 -223.2209930419922,-16.95400047302246 C-223.2209930419922,-16.95400047302246 -215.21499633789062,-46.1879997253418 -215.21499633789062,-46.1879997253418 C-214.4510040283203,-48.979000091552734 -213.3699951171875,-51.676998138427734 -212.00100708007812,-54.20399856567383 C-206.97300720214844,-63.48899841308594 -196.4456787109375,-74.55459594726562 -177.65267944335938,-94.37059020996094 C-175.88568115234375,-96.23359680175781 -173.7146759033203,-97.31059265136719 -171.54367065429688,-97.39859008789062 C-167.2096710205078,-97.57659149169922 -162.67367553710938,-97.66659545898438 -158.065673828125,-97.66659545898438z M-158.065673828125,-111.66659545898438 C-162.877685546875,-111.66659545898438 -167.56068420410156,-111.57459259033203 -172.11668395996094,-111.3875961303711 C-177.94967651367188,-111.14759063720703 -183.52467346191406,-108.52559661865234 -187.81268310546875,-104.00159454345703 C-206.36367797851562,-84.44159698486328 -218.27499389648438,-72.0199966430664 -224.31199645996094,-60.86899948120117 C-226.18899536132812,-57.40399932861328 -227.6719970703125,-53.70800018310547 -228.718994140625,-49.88600158691406 C-228.718994140625,-49.88600158691406 -236.802001953125,-20.367000579833984 -236.802001953125,-20.367000579833984 C-238.79800415039062,-13.079000473022461 -234.88999938964844,-5.635000228881836 -228.0919952392578,-3.7730000019073486 C-228.0919952392578,-3.7730000019073486 -143.98599243164062,19.257999420166016 -143.98599243164062,19.257999420166016 C-143.3489990234375,19.433000564575195 -142.697998046875,19.514999389648438 -142.03900146484375,19.514999389648438 C-135.94200134277344,19.514999389648438 -129.23399353027344,12.454000473022461 -127.197998046875,6.2779998779296875 C-127.197998046875,6.2779998779296875 -102.23899841308594,-49.14699935913086 -102.23899841308594,-49.14699935913086 C-100.45700073242188,-52.99100112915039 -97.08399963378906,-55.46699905395508 -93.78700256347656,-55.46699905395508 C-93.47000122070312,-55.46699905395508 -93.15299987792969,-55.444000244140625 -92.83799743652344,-55.39699935913086 C-63.22700119018555,-50.972999572753906 -25.246000289916992,-42.91400146484375 1.399999976158142,-36.933998107910156 C11.644000053405762,-34.6349983215332 21.899999618530273,-31.826000213623047 31.88599967956543,-28.586000442504883 C57.861000061035156,-20.156999588012695 94.64600372314453,-7.742000102996826 122.38300323486328,3.5360000133514404 C125.73799896240234,4.901000022888184 127.75599670410156,9.081999778747559 127.2979965209961,13.628999710083008 C127.2979965209961,13.628999710083008 119.47200012207031,77.97100067138672 119.47200012207031,77.97100067138672 C117.927001953125,85.00700378417969 121.82099914550781,92.04399871826172 128.36099243164062,93.83399963378906 C128.36099243164062,93.83399963378906 212.4709930419922,116.86599731445312 212.4709930419922,116.86599731445312 C213.5229949951172,117.15299987792969 214.58399963378906,117.29199981689453 215.63099670410156,117.29199981689453 C221.35899353027344,117.29199981689453 226.7310028076172,113.18399810791016 228.41900634765625,107.02300262451172 C228.41900634765625,107.02300262451172 236.5019989013672,77.50399780273438 236.5019989013672,77.50399780273438 C237.54600524902344,73.68599700927734 238.1540069580078,69.7490005493164 238.30499267578125,65.80400085449219 C238.7969970703125,52.97600173950195 240.66883850097656,34.5305290222168 234.51583862304688,8.138528823852539 C233.11883544921875,2.143528699874878 229.6268310546875,-2.7744712829589844 224.6858367919922,-5.7074713706970215 C178.0828399658203,-33.373470306396484 108.70773315429688,-70.38328552246094 36.53229522705078,-89.7925796508789 C-46.28756332397461,-111.9993896484375 -105.67167663574219,-111.66659545898438 -158.065673828125,-111.66659545898438z"></path></g><g opacity="1" transform="matrix(1,0,0,1,425.9079895019531,170.16900634765625)"><path stroke-linecap="butt" stroke-linejoin="miter" fill-opacity="0" stroke-miterlimit="10" stroke="rgb(32,18,85)" stroke-opacity="1" stroke-width="9" d=" M51.013004302978516,24.539186477661133 C51.013004302978516,24.539186477661133 48.63937759399414,9.793440818786621 37.997982025146484,3.0582900047302246 C-0.5587412714958191,-20.80109405517578 -42.265071868896484,-16.367605209350586 -49.94300079345703,-9.510000228881836"></path></g><g opacity="1" transform="matrix(1,0,0,1,72.4739990234375,72.21900177001953)"><path stroke-linecap="butt" stroke-linejoin="miter" fill-opacity="0" stroke-miterlimit="10" stroke="rgb(32,18,85)" stroke-opacity="1" stroke-width="9" d=" M51.349910736083984,26.18663215637207 C51.349910736083984,26.18663215637207 49.95670700073242,11.638068199157715 36.03086471557617,3.5884156227111816 C-1.453195571899414,-20.57492446899414 -41.406089782714844,-15.761435508728027 -49.94300079345703,-9.510000228881836"></path></g><g opacity="1" transform="matrix(0.9020911455154419,0.10527463257312775,-0.08564102649688721,0.7338521480560303,60.439998626708984,115.40699768066406)"><path stroke-linecap="butt" stroke-linejoin="miter" fill-opacity="0" stroke-miterlimit="4" stroke="rgb(32,18,85)" stroke-opacity="1" stroke-width="22" d=" M15.225000381469727,30.57699966430664 C9.689000129699707,30.57699966430664 3.8010001182556152,29.767000198364258 -2.2760000228881836,28.170000076293945 C-20.459999084472656,23.389999389648438 -36.689998626708984,12.586000442504883 -43.62300109863281,0.6430000066757202 C-46.65800094604492,-4.583000183105469 -47.5890007019043,-9.503000259399414 -46.38999938964844,-13.977999687194824 C-43.64799880981445,-24.215999603271484 -31.424999237060547,-30.576000213623047 -14.494000434875488,-30.576000213623047 C-7.926000118255615,-30.576000213623047 -0.9990000128746033,-29.631000518798828 6.09499979019165,-27.766000747680664 C25.040000915527344,-22.785999298095703 39.26100158691406,-10.597000122070312 44.95000076293945,-0.7260000109672546 C47.48099899291992,3.6659998893737793 48.48699951171875,7.808000087738037 47.70800018310547,10.640000343322754 C44.27899932861328,23.124000549316406 32.1349983215332,30.57699966430664 15.225000381469727,30.57699966430664z M6.159999847412109,-4.252999782562256 C5.757999897003174,-2.3499999046325684 2.688999891281128,-1.3880000114440918 -0.6940000057220459,-2.1040000915527344 C-4.076000213623047,-2.819000005722046 -6.492000102996826,-4.941999912261963 -6.090000152587891,-6.84499979019165 C-5.688000202178955,-8.748000144958496 -2.618000030517578,-9.710000038146973 0.7639999985694885,-8.994000434875488 C4.146999835968018,-8.277999877929688 6.563000202178955,-6.15500020980835 6.159999847412109,-4.252999782562256z M3.3550000190734863,8.081999778747559 C2.953000068664551,9.984000205993652 -0.11599999666213989,10.946999549865723 -3.499000072479248,10.229999542236328 C-6.881999969482422,9.515000343322754 -9.29800033569336,7.39300012588501 -8.895000457763672,5.488999843597412 C-8.493000030517578,3.5869998931884766 -5.422999858856201,2.624000072479248 -2.0409998893737793,3.3399999141693115 C1.3420000076293945,4.056000232696533 3.757999897003174,6.178999900817871 3.3550000190734863,8.081999778747559z M-9.663999557495117,-1.690000057220459 C-10.067000389099121,0.21199999749660492 -13.13599967956543,1.1749999523162842 -16.51799964904785,0.45899999141693115 C-19.900999069213867,-0.25600001215934753 -22.316999435424805,-2.378999948501587 -21.915000915527344,-4.2829999923706055 C-21.51300048828125,-6.184999942779541 -18.44300079345703,-7.146999835968018 -15.0600004196167,-6.431000232696533 C-11.678000450134277,-5.715000152587891 -9.26200008392334,-3.5929999351501465 -9.663999557495117,-1.690000057220459z M21.268999099731445,6.316999912261963 C20.865999221801758,8.220000267028809 17.797000885009766,9.182000160217285 14.414999961853027,8.465999603271484 C11.031999588012695,7.750999927520752 8.616000175476074,5.627999782562256 9.017999649047852,3.7249999046325684 C9.420000076293945,1.8220000267028809 12.489999771118164,0.8600000143051147 15.873000144958496,1.5759999752044678 C19.2549991607666,2.2920000553131104 21.67099952697754,4.414999961853027 21.268999099731445,6.316999912261963z"></path><path fill="rgb(0,188,255)" fill-opacity="1" d=" M15.225000381469727,30.57699966430664 C9.689000129699707,30.57699966430664 3.8010001182556152,29.767000198364258 -2.2760000228881836,28.170000076293945 C-20.459999084472656,23.389999389648438 -36.689998626708984,12.586000442504883 -43.62300109863281,0.6430000066757202 C-46.65800094604492,-4.583000183105469 -47.5890007019043,-9.503000259399414 -46.38999938964844,-13.977999687194824 C-43.64799880981445,-24.215999603271484 -31.424999237060547,-30.576000213623047 -14.494000434875488,-30.576000213623047 C-7.926000118255615,-30.576000213623047 -0.9990000128746033,-29.631000518798828 6.09499979019165,-27.766000747680664 C25.040000915527344,-22.785999298095703 39.26100158691406,-10.597000122070312 44.95000076293945,-0.7260000109672546 C47.48099899291992,3.6659998893737793 48.48699951171875,7.808000087738037 47.70800018310547,10.640000343322754 C44.27899932861328,23.124000549316406 32.1349983215332,30.57699966430664 15.225000381469727,30.57699966430664z M6.159999847412109,-4.252999782562256 C5.757999897003174,-2.3499999046325684 2.688999891281128,-1.3880000114440918 -0.6940000057220459,-2.1040000915527344 C-4.076000213623047,-2.819000005722046 -6.492000102996826,-4.941999912261963 -6.090000152587891,-6.84499979019165 C-5.688000202178955,-8.748000144958496 -2.618000030517578,-9.710000038146973 0.7639999985694885,-8.994000434875488 C4.146999835968018,-8.277999877929688 6.563000202178955,-6.15500020980835 6.159999847412109,-4.252999782562256z M3.3550000190734863,8.081999778747559 C2.953000068664551,9.984000205993652 -0.11599999666213989,10.946999549865723 -3.499000072479248,10.229999542236328 C-6.881999969482422,9.515000343322754 -9.29800033569336,7.39300012588501 -8.895000457763672,5.488999843597412 C-8.493000030517578,3.5869998931884766 -5.422999858856201,2.624000072479248 -2.0409998893737793,3.3399999141693115 C1.3420000076293945,4.056000232696533 3.757999897003174,6.178999900817871 3.3550000190734863,8.081999778747559z M-9.663999557495117,-1.690000057220459 C-10.067000389099121,0.21199999749660492 -13.13599967956543,1.1749999523162842 -16.51799964904785,0.45899999141693115 C-19.900999069213867,-0.25600001215934753 -22.316999435424805,-2.378999948501587 -21.915000915527344,-4.2829999923706055 C-21.51300048828125,-6.184999942779541 -18.44300079345703,-7.146999835968018 -15.0600004196167,-6.431000232696533 C-11.678000450134277,-5.715000152587891 -9.26200008392334,-3.5929999351501465 -9.663999557495117,-1.690000057220459z M21.268999099731445,6.316999912261963 C20.865999221801758,8.220000267028809 17.797000885009766,9.182000160217285 14.414999961853027,8.465999603271484 C11.031999588012695,7.750999927520752 8.616000175476074,5.627999782562256 9.017999649047852,3.7249999046325684 C9.420000076293945,1.8220000267028809 12.489999771118164,0.8600000143051147 15.873000144958496,1.5759999752044678 C19.2549991607666,2.2920000553131104 21.67099952697754,4.414999961853027 21.268999099731445,6.316999912261963z"></path><path fill="rgb(0,128,255)" fill-opacity="1" d=" M6.159999847412109,-4.252999782562256 C5.757999897003174,-2.3499999046325684 2.688999891281128,-1.3880000114440918 -0.6940000057220459,-2.1040000915527344 C-4.076000213623047,-2.819000005722046 -6.492000102996826,-4.941999912261963 -6.090000152587891,-6.84499979019165 C-5.688000202178955,-8.748000144958496 -2.618000030517578,-9.710000038146973 0.7639999985694885,-8.994000434875488 C4.146999835968018,-8.277999877929688 6.563000202178955,-6.15500020980835 6.159999847412109,-4.252999782562256z M3.3550000190734863,8.081999778747559 C2.953000068664551,9.984000205993652 -0.11599999666213989,10.946999549865723 -3.499000072479248,10.229999542236328 C-6.881999969482422,9.515000343322754 -9.29800033569336,7.39300012588501 -8.895000457763672,5.488999843597412 C-8.493000030517578,3.5869998931884766 -5.422999858856201,2.624000072479248 -2.0409998893737793,3.3399999141693115 C1.3420000076293945,4.056000232696533 3.757999897003174,6.178999900817871 3.3550000190734863,8.081999778747559z M-9.663999557495117,-1.690000057220459 C-10.067000389099121,0.21199999749660492 -13.13599967956543,1.1749999523162842 -16.51799964904785,0.45899999141693115 C-19.900999069213867,-0.25600001215934753 -22.316999435424805,-2.378999948501587 -21.915000915527344,-4.2829999923706055 C-21.51300048828125,-6.184999942779541 -18.44300079345703,-7.146999835968018 -15.0600004196167,-6.431000232696533 C-11.678000450134277,-5.715000152587891 -9.26200008392334,-3.5929999351501465 -9.663999557495117,-1.690000057220459z M21.268999099731445,6.316999912261963 C20.865999221801758,8.220000267028809 17.797000885009766,9.182000160217285 14.414999961853027,8.465999603271484 C11.031999588012695,7.750999927520752 8.616000175476074,5.627999782562256 9.017999649047852,3.7249999046325684 C9.420000076293945,1.8220000267028809 12.489999771118164,0.8600000143051147 15.873000144958496,1.5759999752044678 C19.2549991607666,2.2920000553131104 21.67099952697754,4.414999961853027 21.268999099731445,6.316999912261963z"></path></g><g opacity="1" transform="matrix(0.935034453868866,0.059750620275735855,-0.047116804867982864,0.7373285293579102,419.94000244140625,214.90699768066406)"><path stroke-linecap="butt" stroke-linejoin="miter" fill-opacity="0" stroke-miterlimit="4" stroke="rgb(32,18,85)" stroke-opacity="1" stroke-width="22" d=" M15.225000381469727,30.57699966430664 C9.689000129699707,30.57699966430664 3.8010001182556152,29.767000198364258 -2.2760000228881836,28.170000076293945 C-20.459999084472656,23.389999389648438 -36.689998626708984,12.586000442504883 -43.62300109863281,0.6430000066757202 C-46.65800094604492,-4.583000183105469 -47.5890007019043,-9.503000259399414 -46.38999938964844,-13.977999687194824 C-43.64799880981445,-24.215999603271484 -31.424999237060547,-30.576000213623047 -14.494000434875488,-30.576000213623047 C-7.926000118255615,-30.576000213623047 -0.9990000128746033,-29.631000518798828 6.09499979019165,-27.766000747680664 C25.040000915527344,-22.785999298095703 39.26100158691406,-10.597000122070312 44.95000076293945,-0.7260000109672546 C47.48099899291992,3.6659998893737793 48.48699951171875,7.808000087738037 47.70800018310547,10.640000343322754 C44.27899932861328,23.124000549316406 32.1349983215332,30.57699966430664 15.225000381469727,30.57699966430664z M6.159999847412109,-4.252999782562256 C5.757999897003174,-2.3499999046325684 2.688999891281128,-1.3880000114440918 -0.6940000057220459,-2.1040000915527344 C-4.076000213623047,-2.819000005722046 -6.492000102996826,-4.941999912261963 -6.090000152587891,-6.84499979019165 C-5.688000202178955,-8.748000144958496 -2.618000030517578,-9.710000038146973 0.7639999985694885,-8.994000434875488 C4.146999835968018,-8.277999877929688 6.563000202178955,-6.15500020980835 6.159999847412109,-4.252999782562256z M3.3550000190734863,8.081999778747559 C2.953000068664551,9.984000205993652 -0.11599999666213989,10.946999549865723 -3.499000072479248,10.229999542236328 C-6.881999969482422,9.515000343322754 -9.29800033569336,7.39300012588501 -8.895000457763672,5.488999843597412 C-8.493000030517578,3.5869998931884766 -5.422999858856201,2.624000072479248 -2.0409998893737793,3.3399999141693115 C1.3420000076293945,4.056000232696533 3.757999897003174,6.178999900817871 3.3550000190734863,8.081999778747559z M-9.663999557495117,-1.690000057220459 C-10.067000389099121,0.21199999749660492 -13.13599967956543,1.1749999523162842 -16.51799964904785,0.45899999141693115 C-19.900999069213867,-0.25600001215934753 -22.316999435424805,-2.378999948501587 -21.915000915527344,-4.2829999923706055 C-21.51300048828125,-6.184999942779541 -18.44300079345703,-7.146999835968018 -15.0600004196167,-6.431000232696533 C-11.678000450134277,-5.715000152587891 -9.26200008392334,-3.5929999351501465 -9.663999557495117,-1.690000057220459z M21.268999099731445,6.316999912261963 C20.865999221801758,8.220000267028809 17.797000885009766,9.182000160217285 14.414999961853027,8.465999603271484 C11.031999588012695,7.750999927520752 8.616000175476074,5.627999782562256 9.017999649047852,3.7249999046325684 C9.420000076293945,1.8220000267028809 12.489999771118164,0.8600000143051147 15.873000144958496,1.5759999752044678 C19.2549991607666,2.2920000553131104 21.67099952697754,4.414999961853027 21.268999099731445,6.316999912261963z"></path><path fill="rgb(0,188,255)" fill-opacity="1" d=" M15.225000381469727,30.57699966430664 C9.689000129699707,30.57699966430664 3.8010001182556152,29.767000198364258 -2.2760000228881836,28.170000076293945 C-20.459999084472656,23.389999389648438 -36.689998626708984,12.586000442504883 -43.62300109863281,0.6430000066757202 C-46.65800094604492,-4.583000183105469 -47.5890007019043,-9.503000259399414 -46.38999938964844,-13.977999687194824 C-43.64799880981445,-24.215999603271484 -31.424999237060547,-30.576000213623047 -14.494000434875488,-30.576000213623047 C-7.926000118255615,-30.576000213623047 -0.9990000128746033,-29.631000518798828 6.09499979019165,-27.766000747680664 C25.040000915527344,-22.785999298095703 39.26100158691406,-10.597000122070312 44.95000076293945,-0.7260000109672546 C47.48099899291992,3.6659998893737793 48.48699951171875,7.808000087738037 47.70800018310547,10.640000343322754 C44.27899932861328,23.124000549316406 32.1349983215332,30.57699966430664 15.225000381469727,30.57699966430664z M6.159999847412109,-4.252999782562256 C5.757999897003174,-2.3499999046325684 2.688999891281128,-1.3880000114440918 -0.6940000057220459,-2.1040000915527344 C-4.076000213623047,-2.819000005722046 -6.492000102996826,-4.941999912261963 -6.090000152587891,-6.84499979019165 C-5.688000202178955,-8.748000144958496 -2.618000030517578,-9.710000038146973 0.7639999985694885,-8.994000434875488 C4.146999835968018,-8.277999877929688 6.563000202178955,-6.15500020980835 6.159999847412109,-4.252999782562256z M3.3550000190734863,8.081999778747559 C2.953000068664551,9.984000205993652 -0.11599999666213989,10.946999549865723 -3.499000072479248,10.229999542236328 C-6.881999969482422,9.515000343322754 -9.29800033569336,7.39300012588501 -8.895000457763672,5.488999843597412 C-8.493000030517578,3.5869998931884766 -5.422999858856201,2.624000072479248 -2.0409998893737793,3.3399999141693115 C1.3420000076293945,4.056000232696533 3.757999897003174,6.178999900817871 3.3550000190734863,8.081999778747559z M-9.663999557495117,-1.690000057220459 C-10.067000389099121,0.21199999749660492 -13.13599967956543,1.1749999523162842 -16.51799964904785,0.45899999141693115 C-19.900999069213867,-0.25600001215934753 -22.316999435424805,-2.378999948501587 -21.915000915527344,-4.2829999923706055 C-21.51300048828125,-6.184999942779541 -18.44300079345703,-7.146999835968018 -15.0600004196167,-6.431000232696533 C-11.678000450134277,-5.715000152587891 -9.26200008392334,-3.5929999351501465 -9.663999557495117,-1.690000057220459z M21.268999099731445,6.316999912261963 C20.865999221801758,8.220000267028809 17.797000885009766,9.182000160217285 14.414999961853027,8.465999603271484 C11.031999588012695,7.750999927520752 8.616000175476074,5.627999782562256 9.017999649047852,3.7249999046325684 C9.420000076293945,1.8220000267028809 12.489999771118164,0.8600000143051147 15.873000144958496,1.5759999752044678 C19.2549991607666,2.2920000553131104 21.67099952697754,4.414999961853027 21.268999099731445,6.316999912261963z"></path><path fill="rgb(0,128,255)" fill-opacity="1" d=" M6.159999847412109,-4.252999782562256 C5.757999897003174,-2.3499999046325684 2.688999891281128,-1.3880000114440918 -0.6940000057220459,-2.1040000915527344 C-4.076000213623047,-2.819000005722046 -6.492000102996826,-4.941999912261963 -6.090000152587891,-6.84499979019165 C-5.688000202178955,-8.748000144958496 -2.618000030517578,-9.710000038146973 0.7639999985694885,-8.994000434875488 C4.146999835968018,-8.277999877929688 6.563000202178955,-6.15500020980835 6.159999847412109,-4.252999782562256z M3.3550000190734863,8.081999778747559 C2.953000068664551,9.984000205993652 -0.11599999666213989,10.946999549865723 -3.499000072479248,10.229999542236328 C-6.881999969482422,9.515000343322754 -9.29800033569336,7.39300012588501 -8.895000457763672,5.488999843597412 C-8.493000030517578,3.5869998931884766 -5.422999858856201,2.624000072479248 -2.0409998893737793,3.3399999141693115 C1.3420000076293945,4.056000232696533 3.757999897003174,6.178999900817871 3.3550000190734863,8.081999778747559z M-9.663999557495117,-1.690000057220459 C-10.067000389099121,0.21199999749660492 -13.13599967956543,1.1749999523162842 -16.51799964904785,0.45899999141693115 C-19.900999069213867,-0.25600001215934753 -22.316999435424805,-2.378999948501587 -21.915000915527344,-4.2829999923706055 C-21.51300048828125,-6.184999942779541 -18.44300079345703,-7.146999835968018 -15.0600004196167,-6.431000232696533 C-11.678000450134277,-5.715000152587891 -9.26200008392334,-3.5929999351501465 -9.663999557495117,-1.690000057220459z M21.268999099731445,6.316999912261963 C20.865999221801758,8.220000267028809 17.797000885009766,9.182000160217285 14.414999961853027,8.465999603271484 C11.031999588012695,7.750999927520752 8.616000175476074,5.627999782562256 9.017999649047852,3.7249999046325684 C9.420000076293945,1.8220000267028809 12.489999771118164,0.8600000143051147 15.873000144958496,1.5759999752044678 C19.2549991607666,2.2920000553131104 21.67099952697754,4.414999961853027 21.268999099731445,6.316999912261963z"></path></g></g><g transform="matrix(1,0,0,0.9933178424835205,242.07298278808594,179.7171630859375)" opacity="1" style="display: block;"><g opacity="1" transform="matrix(1,0,0,1,181.16299438476562,148.08200073242188)"><path fill="rgb(0,188,255)" fill-opacity="1" d=" M-113.5250015258789,-110.33799743652344 C-113.5250015258789,-110.33799743652344 -171.6300048828125,21.66699981689453 -171.6300048828125,21.66699981689453 C-174.36199951171875,25.604999542236328 -175.82699584960938,30.285999298095703 -175.82699584960938,35.08000183105469 C-175.82699584960938,35.08000183105469 -175.82699584960938,96.9229965209961 -175.82699584960938,96.9229965209961 C-175.82699584960938,109.91999816894531 -165.29100036621094,120.45600128173828 -152.29400634765625,120.45600128173828 C-152.29400634765625,120.45600128173828 152.29299926757812,120.45600128173828 152.29299926757812,120.45600128173828 C165.2899932861328,120.45600128173828 175.82699584960938,109.91999816894531 175.82699584960938,96.9229965209961 C175.82699584960938,96.9229965209961 175.82699584960938,35.08000183105469 175.82699584960938,35.08000183105469 C175.82699584960938,30.285999298095703 174.36199951171875,25.604999542236328 171.62899780273438,21.66699981689453 C171.62899780273438,21.66699981689453 113.5250015258789,-110.33799743652344 113.5250015258789,-110.33799743652344 C109.12699890136719,-116.6760025024414 101.90299987792969,-120.45600128173828 94.18900299072266,-120.45600128173828 C94.18900299072266,-120.45600128173828 -94.18900299072266,-120.45600128173828 -94.18900299072266,-120.45600128173828 C-101.90299987792969,-120.45600128173828 -109.12799835205078,-116.6760025024414 -113.5250015258789,-110.33799743652344z"></path></g><g opacity="1" transform="matrix(1,0,0,1,184.0540008544922,120.34200286865234)"><path fill="rgb(0,128,255)" fill-opacity="1" d=" M76.35600280761719,-2.5 C76.35600280761719,-17.18899917602539 68.15799713134766,-30.86400032043457 53.270999908447266,-41.00600051879883 C38.972999572753906,-50.74700164794922 20.054000854492188,-56.11199951171875 0.0010000000474974513,-56.11199951171875 C-20.05299949645996,-56.11199951171875 -38.97200012207031,-50.74700164794922 -53.270999908447266,-41.00600051879883 C-68.15799713134766,-30.86400032043457 -76.35600280761719,-17.18899917602539 -76.35600280761719,-2.5 C-76.35600280761719,-2.5 -76.35600280761719,2.5 -76.35600280761719,2.5 C-76.35600280761719,17.18899917602539 -68.15799713134766,30.86400032043457 -53.270999908447266,41.00600051879883 C-38.97200012207031,50.74700164794922 -20.05299949645996,56.11199951171875 0.0010000000474974513,56.11199951171875 C20.054000854492188,56.11199951171875 38.972999572753906,50.74700164794922 53.270999908447266,41.00600051879883 C68.15799713134766,30.86400032043457 76.35600280761719,17.18899917602539 76.35600280761719,2.5 C76.35600280761719,2.5 76.35600280761719,-2.5 76.35600280761719,-2.5z"></path></g><g opacity="1" transform="matrix(1,0,0,1,182.85299682617188,251.53799438476562)"><path fill="rgb(188,235,255)" fill-opacity="1" d=" M-155.73599243164062,-41.064998626708984 C-155.73599243164062,-41.064998626708984 153.26300048828125,-41.064998626708984 153.26300048828125,-41.064998626708984 C161.5189971923828,-41.064998626708984 177.13299560546875,-46.05400085449219 177.13299560546875,-64.93499755859375 C177.13299560546875,-64.93499755859375 168.13299560546875,-64.93499755859375 168.13299560546875,-64.93499755859375 C168.13299560546875,-50.63399887084961 154.76400756835938,-50.08100128173828 153.26300048828125,-50.064998626708984 C153.26300048828125,-50.064998626708984 -155.73599243164062,-50.064998626708984 -155.73599243164062,-50.064998626708984 C-159.80299377441406,-50.064998626708984 -162.85499572753906,-51.112998962402344 -164.80599975585938,-53.178001403808594 C-167.93800354003906,-56.49399948120117 -167.68299865722656,-61.65999984741211 -167.67999267578125,-61.71099853515625 C-167.67999267578125,-61.71099853515625 -172.17100524902344,-62.000999450683594 -172.17100524902344,-62.000999450683594 C-172.17100524902344,-62.000999450683594 -176.65899658203125,-62.32099914550781 -176.65899658203125,-62.32099914550781 C-176.7239990234375,-61.40700149536133 -177.1320037841797,-53.209999084472656 -171.43499755859375,-47.0890007019043 C-167.71299743652344,-43.09199905395508 -162.42999267578125,-41.064998626708984 -155.73599243164062,-41.064998626708984z M153.26300048828125,2.934999942779541 C153.26300048828125,2.934999942779541 -155.73599243164062,2.934999942779541 -155.73599243164062,2.934999942779541 C-159.80299377441406,2.934999942779541 -162.85499572753906,1.8869999647140503 -164.80599975585938,-0.17800000309944153 C-167.93800354003906,-3.49399995803833 -167.68299865722656,-8.65999984741211 -167.67999267578125,-8.711000442504883 C-167.67999267578125,-8.711000442504883 -172.17100524902344,-9.00100040435791 -172.17100524902344,-9.00100040435791 C-172.17100524902344,-9.00100040435791 -176.65899658203125,-9.321000099182129 -176.65899658203125,-9.321000099182129 C-176.7239990234375,-8.406999588012695 -177.13299560546875,-0.20999999344348907 -171.43499755859375,5.910999774932861 C-167.71299743652344,9.907999992370605 -162.42999267578125,11.9350004196167 -155.73599243164062,11.9350004196167 C-155.73599243164062,11.9350004196167 153.26300048828125,11.9350004196167 153.26300048828125,11.9350004196167 C161.5189971923828,11.9350004196167 177.13299560546875,6.946000099182129 177.13299560546875,-11.9350004196167 C177.13299560546875,-11.9350004196167 168.13299560546875,-11.9350004196167 168.13299560546875,-11.9350004196167 C168.13299560546875,2.365999937057495 154.76400756835938,2.9189999103546143 153.26300048828125,2.934999942779541z"></path></g><g opacity="1" transform="matrix(1,0,0,1,184.29200744628906,103.01699829101562)"><path fill="rgb(32,18,85)" fill-opacity="1" d=" M76.23799896240234,-2.500999927520752 C76.31199645996094,-3.4809999465942383 76.35600280761719,-4.466000080108643 76.35600280761719,-5.455999851226807 C76.35600280761719,-20.145999908447266 68.15799713134766,-33.81999969482422 53.270999908447266,-43.96200180053711 C38.972999572753906,-53.702999114990234 20.054000854492188,-59.06800079345703 0.0010000000474974513,-59.06800079345703 C-20.05299949645996,-59.06800079345703 -38.97200012207031,-53.702999114990234 -53.270999908447266,-43.96200180053711 C-68.15799713134766,-33.81999969482422 -76.35600280761719,-20.145999908447266 -76.35600280761719,-5.455999851226807 C-76.35600280761719,-4.466000080108643 -76.31199645996094,-3.4800000190734863 -76.23799896240234,-2.499000072479248 C-76.31199645996094,-1.5190000534057617 -76.35600280761719,-0.5350000262260437 -76.35600280761719,0.4560000002384186 C-76.35600280761719,0.4560000002384186 -76.35600280761719,5.455999851226807 -76.35600280761719,5.455999851226807 C-76.35600280761719,20.145000457763672 -68.15799713134766,33.82099914550781 -53.270999908447266,43.9630012512207 C-38.97200012207031,53.70399856567383 -20.05299949645996,59.06800079345703 0.0010000000474974513,59.06800079345703 C20.054000854492188,59.06800079345703 38.972999572753906,53.70399856567383 53.270999908447266,43.9630012512207 C68.15799713134766,33.82099914550781 76.35600280761719,20.145000457763672 76.35600280761719,5.455999851226807 C76.35600280761719,5.455999851226807 76.35600280761719,0.4560000002384186 76.35600280761719,0.4560000002384186 C76.35600280761719,-0.5350000262260437 76.31199645996094,-1.5210000276565552 76.23799896240234,-2.500999927520752z"></path></g><g opacity="1" transform="matrix(1,0,0,1,183.0760040283203,139.08999633789062)"><path fill="rgb(32,18,85)" fill-opacity="1" d=" M179.01400756835938,31.69099998474121 C178.65499877929688,31.04199981689453 178.29200744628906,30.39699935913086 177.9290008544922,29.750999450683594 C177.1840057373047,28.42799949645996 176.47900390625,27.174907684326172 175.8249969482422,25.916908264160156 C175.8249969482422,25.916908264160156 119.93699645996094,-101.75900268554688 119.93699645996094,-101.75900268554688 C119.93699645996094,-101.75900268554688 119.66500091552734,-102.38300323486328 119.66500091552734,-102.38300323486328 C119.66500091552734,-102.38300323486328 119.2770004272461,-102.94400024414062 119.2770004272461,-102.94400024414062 C113.572998046875,-111.16500091552734 104.19499969482422,-116.072998046875 94.18900299072266,-116.072998046875 C94.18900299072266,-116.072998046875 58.67399978637695,-116.015625 58.67399978637695,-116.015625 C58.67399978637695,-116.015625 58.66968536376953,-129.21446228027344 58.66968536376953,-129.21446228027344 C58.66968536376953,-133.7564697265625 55.5656852722168,-136.93505859375 51.74968338012695,-136.93505859375 C51.74968338012695,-136.93505859375 49.79668426513672,-136.93505859375 49.79668426513672,-136.93505859375 C45.97968673706055,-136.93505859375 42.87568664550781,-133.7564697265625 42.87568664550781,-129.21446228027344 C42.87568664550781,-129.21446228027344 42.880001068115234,-116.015625 42.880001068115234,-116.015625 C42.880001068115234,-116.015625 -58.27299880981445,-116.015625 -58.27299880981445,-116.015625 C-58.27299880981445,-116.015625 -58.277313232421875,-129.21446228027344 -58.277313232421875,-129.21446228027344 C-58.277313232421875,-133.7564697265625 -61.38131332397461,-136.93505859375 -65.19831848144531,-136.93505859375 C-65.19831848144531,-136.93505859375 -67.15131378173828,-136.93505859375 -67.15131378173828,-136.93505859375 C-70.96731567382812,-136.93505859375 -74.0713119506836,-133.7564697265625 -74.0713119506836,-129.21446228027344 C-74.0713119506836,-129.21446228027344 -74.06700134277344,-116.015625 -74.06700134277344,-116.015625 C-74.06700134277344,-116.015625 -94.19000244140625,-116.072998046875 -94.19000244140625,-116.072998046875 C-104.19499969482422,-116.072998046875 -113.572998046875,-111.16500091552734 -119.27799987792969,-102.94400024414062 C-119.27799987792969,-102.94400024414062 -119.66500091552734,-102.38300323486328 -119.66500091552734,-102.38300323486328 C-119.66500091552734,-102.38300323486328 -175.8249969482422,25.916908264160156 -175.8249969482422,25.916908264160156 C-176.47999572753906,27.174907684326172 -177.18499755859375,28.42799949645996 -177.9290008544922,29.750999450683594 C-178.29200744628906,30.39699935913086 -178.65499877929688,31.04199981689453 -179.01600646972656,31.69300079345703 C-181.50900268554688,36.20399856567383 -182.8260040283203,41.313907623291016 -182.8260040283203,46.464908599853516 C-182.8260040283203,46.464908599853516 -182.8260040283203,108.30709075927734 -182.8260040283203,108.30709075927734 C-182.8260040283203,125.1430892944336 -169.12899780273438,138.83999633789062 -152.29299926757812,138.83999633789062 C-152.29299926757812,138.83999633789062 152.29299926757812,138.83999633789062 152.29299926757812,138.83999633789062 C169.12899780273438,138.83999633789062 182.8260040283203,125.1430892944336 182.8260040283203,108.30709075927734 C182.8260040283203,108.30709075927734 182.8260040283203,46.464908599853516 182.8260040283203,46.464908599853516 C182.8260040283203,41.313907623291016 181.50900268554688,36.20399856567383 179.01400756835938,31.69099998474121z M-166.76300048828125,38.465999603271484 C-166.42100524902344,37.84700012207031 -166.072998046875,37.23099899291992 -165.7270050048828,36.6150016784668 C-164.91799926757812,35.176998138427734 -164.08200073242188,33.691001892089844 -163.2830047607422,32.143001556396484 C-163.2830047607422,32.143001556396484 -163.1820068359375,31.94499969482422 -163.1820068359375,31.94499969482422 C-163.1820068359375,31.94499969482422 -107.41000366210938,-95.46600341796875 -107.41000366210938,-95.46600341796875 C-104.2959976196289,-99.61399841308594 -99.4000015258789,-102.072998046875 -94.19000244140625,-102.072998046875 C-94.19000244140625,-102.072998046875 94.18900299072266,-102.072998046875 94.18900299072266,-102.072998046875 C99.39900207519531,-102.072998046875 104.2959976196289,-99.61399841308594 107.41000366210938,-95.46600341796875 C107.41000366210938,-95.46600341796875 163.09300231933594,31.739999771118164 163.09300231933594,31.739999771118164 C163.09300231933594,31.739999771118164 163.2830047607422,32.143001556396484 163.2830047607422,32.143001556396484 C164.08200073242188,33.691001892089844 164.91799926757812,35.176998138427734 165.7259979248047,36.6150016784668 C166.072998046875,37.23099899291992 166.42100524902344,37.84700012207031 166.76199340820312,38.4640007019043 C167.16299438476562,39.191001892089844 167.5019989013672,39.94900131225586 167.78799438476562,40.724998474121094 C166.4810028076172,52.86600112915039 154.45899963378906,53.36899948120117 153.0399932861328,53.382999420166016 C153.0399932861328,53.382999420166016 -155.95899963378906,53.382999420166016 -155.95899963378906,53.382999420166016 C-160.02699279785156,53.382999420166016 -163.0780029296875,52.33599853515625 -165.02999877929688,50.270999908447266 C-168.16099548339844,46.95500183105469 -167.906005859375,41.78900146484375 -167.9029998779297,41.737998962402344 C-167.9029998779297,41.737998962402344 -168.1219940185547,41.722999572753906 -168.1219940185547,41.722999572753906 C-167.78399658203125,40.59600067138672 -167.33399963378906,39.5 -166.76300048828125,38.465999603271484z M168.8260040283203,108.30699920654297 C168.8260040283203,117.4229965209961 161.40899658203125,124.83999633789062 152.29299926757812,124.83999633789062 C152.29299926757812,124.83999633789062 -152.29299926757812,124.83999633789062 -152.29299926757812,124.83999633789062 C-161.40899658203125,124.83999633789062 -168.8260040283203,117.4229965209961 -168.8260040283203,108.30699920654297 C-168.8260040283203,108.30699920654297 -168.8260040283203,58.79800033569336 -168.8260040283203,58.79800033569336 C-165.41400146484375,61.172000885009766 -161.11000061035156,62.382999420166016 -155.95899963378906,62.382999420166016 C-155.95899963378906,62.382999420166016 153.0399932861328,62.382999420166016 153.0399932861328,62.382999420166016 C153.6439971923828,62.382999420166016 159.10699462890625,62.301998138427734 164.73699951171875,59.48699951171875 C166.07400512695312,58.819000244140625 167.4720001220703,57.9630012512207 168.8260040283203,56.887001037597656 C168.8260040283203,56.887001037597656 168.8260040283203,108.30699920654297 168.8260040283203,108.30699920654297z"></path></g><g opacity="1" transform="matrix(1,0,0,1,184.0540008544922,97.93000030517578)"><path fill="rgb(182,248,255)" fill-opacity="1" d=" M71.35600280761719,0 C71.35600280761719,26.847999572753906 39.409000396728516,48.61199951171875 0.0010000000474974513,48.61199951171875 C-39.409000396728516,48.61199951171875 -71.35600280761719,26.847999572753906 -71.35600280761719,0 C-71.35600280761719,-26.849000930786133 -39.409000396728516,-48.61199951171875 0.0010000000474974513,-48.61199951171875 C39.409000396728516,-48.61199951171875 71.35600280761719,-26.849000930786133 71.35600280761719,0z"></path></g><g opacity="1" transform="matrix(1,0,0,1,184.29200744628906,95.84200286865234)"><path fill="rgb(255,255,255)" fill-opacity="1" d=" M0.0010000000474974513,-12.173999786376953 C-9.89799976348877,-12.173999786376953 -17.652000427246094,-6.826000213623047 -17.652000427246094,0 C-17.652000427246094,6.826000213623047 -9.89799976348877,12.173999786376953 0.0010000000474974513,12.173999786376953 C9.89900016784668,12.173999786376953 17.652000427246094,6.826000213623047 17.652000427246094,0 C17.652000427246094,-6.826000213623047 9.89900016784668,-12.173999786376953 0.0010000000474974513,-12.173999786376953z M13.652000427246094,0 C13.652000427246094,4.431000232696533 7.400000095367432,8.173999786376953 0.0010000000474974513,8.173999786376953 C-7.400000095367432,8.173999786376953 -13.652000427246094,4.431000232696533 -13.652000427246094,0 C-13.652000427246094,-4.431000232696533 -7.400000095367432,-8.173999786376953 0.0010000000474974513,-8.173999786376953 C7.400000095367432,-8.173999786376953 13.652000427246094,-4.431000232696533 13.652000427246094,0z"></path></g></g><g transform="matrix(1,0,0,0.9933178424835205,371.5929870605469,237.09716796875)" opacity="1" style="display: block;"><g opacity="1" transform="matrix(1,0,0,1,55.75,11.468000411987305)"><path fill="rgb(32,18,85)" fill-opacity="1" d=" M0,11.218000411987305 C-9.251999855041504,11.218000411987305 -16.5,6.289999961853027 -16.5,0 C-16.5,-6.289999961853027 -9.251999855041504,-11.218000411987305 0,-11.218000411987305 C9.251999855041504,-11.218000411987305 16.5,-6.289999961853027 16.5,0 C16.5,6.289999961853027 9.251999855041504,11.218000411987305 0,11.218000411987305z M0,-5.2179999351501465 C-6.010000228881836,-5.2179999351501465 -10.5,-2.4630000591278076 -10.5,0 C-10.5,2.4630000591278076 -6.010000228881836,5.2179999351501465 0,5.2179999351501465 C6.010000228881836,5.2179999351501465 10.5,2.4630000591278076 10.5,0 C10.5,-2.4630000591278076 6.010000228881836,-5.2179999351501465 0,-5.2179999351501465z"></path></g><g opacity="1" transform="matrix(1,0,0,1,91.75,24.468000411987305)"><path fill="rgb(32,18,85)" fill-opacity="1" d=" M0,11.218000411987305 C-9.251999855041504,11.218000411987305 -16.5,6.289999961853027 -16.5,0 C-16.5,-6.289999961853027 -9.251999855041504,-11.218000411987305 0,-11.218000411987305 C9.251999855041504,-11.218000411987305 16.5,-6.289999961853027 16.5,0 C16.5,6.289999961853027 9.251999855041504,11.218000411987305 0,11.218000411987305z M0,-5.2179999351501465 C-6.010000228881836,-5.2179999351501465 -10.5,-2.4630000591278076 -10.5,0 C-10.5,2.4630000591278076 -6.010000228881836,5.2179999351501465 0,5.2179999351501465 C6.010000228881836,5.2179999351501465 10.5,2.4630000591278076 10.5,0 C10.5,-2.4630000591278076 6.010000228881836,-5.2179999351501465 0,-5.2179999351501465z"></path></g><g opacity="1" transform="matrix(1,0,0,1,90.75,53.46799850463867)"><path fill="rgb(32,18,85)" fill-opacity="1" d=" M0,11.218000411987305 C-9.251999855041504,11.218000411987305 -16.5,6.289999961853027 -16.5,0 C-16.5,-6.289999961853027 -9.251999855041504,-11.218000411987305 0,-11.218000411987305 C9.251999855041504,-11.218000411987305 16.5,-6.289999961853027 16.5,0 C16.5,6.289999961853027 9.251999855041504,11.218000411987305 0,11.218000411987305z M0,-5.2179999351501465 C-6.010000228881836,-5.2179999351501465 -10.5,-2.4630000591278076 -10.5,0 C-10.5,2.4630000591278076 -6.010000228881836,5.2179999351501465 0,5.2179999351501465 C6.010000228881836,5.2179999351501465 10.5,2.4630000591278076 10.5,0 C10.5,-2.4630000591278076 6.010000228881836,-5.2179999351501465 0,-5.2179999351501465z"></path></g><g opacity="1" transform="matrix(1,0,0,1,53.75,65.46800231933594)"><path fill="rgb(32,18,85)" fill-opacity="1" d=" M0,11.218000411987305 C-9.251999855041504,11.218000411987305 -16.5,6.289999961853027 -16.5,0 C-16.5,-6.289999961853027 -9.251999855041504,-11.218000411987305 0,-11.218000411987305 C9.251999855041504,-11.218000411987305 16.5,-6.289999961853027 16.5,0 C16.5,6.289999961853027 9.251999855041504,11.218000411987305 0,11.218000411987305z M0,-5.2179999351501465 C-6.010000228881836,-5.2179999351501465 -10.5,-2.4630000591278076 -10.5,0 C-10.5,2.4630000591278076 -6.010000228881836,5.2179999351501465 0,5.2179999351501465 C6.010000228881836,5.2179999351501465 10.5,2.4630000591278076 10.5,0 C10.5,-2.4630000591278076 6.010000228881836,-5.2179999351501465 0,-5.2179999351501465z"></path></g><g opacity="1" transform="matrix(1,0,0,1,17.75,23.468000411987305)"><path fill="rgb(32,18,85)" fill-opacity="1" d=" M0,11.218000411987305 C-9.251999855041504,11.218000411987305 -16.5,6.289999961853027 -16.5,0 C-16.5,-6.289999961853027 -9.251999855041504,-11.218000411987305 0,-11.218000411987305 C9.251999855041504,-11.218000411987305 16.5,-6.289999961853027 16.5,0 C16.5,6.289999961853027 9.251999855041504,11.218000411987305 0,11.218000411987305z M0,-5.2179999351501465 C-6.010000228881836,-5.2179999351501465 -10.5,-2.4630000591278076 -10.5,0 C-10.5,2.4630000591278076 -6.010000228881836,5.2179999351501465 0,5.2179999351501465 C6.010000228881836,5.2179999351501465 10.5,2.4630000591278076 10.5,0 C10.5,-2.4630000591278076 6.010000228881836,-5.2179999351501465 0,-5.2179999351501465z"></path></g><g opacity="1" transform="matrix(1,0,0,1,16.75,52.46799850463867)"><path fill="rgb(32,18,85)" fill-opacity="1" d=" M0,11.218000411987305 C-9.251999855041504,11.218000411987305 -16.5,6.289999961853027 -16.5,0 C-16.5,-6.289999961853027 -9.251999855041504,-11.218000411987305 0,-11.218000411987305 C9.251999855041504,-11.218000411987305 16.5,-6.289999961853027 16.5,0 C16.5,6.289999961853027 9.251999855041504,11.218000411987305 0,11.218000411987305z M0,-5.2179999351501465 C-6.010000228881836,-5.2179999351501465 -10.5,-2.4630000591278076 -10.5,0 C-10.5,2.4630000591278076 -6.010000228881836,5.2179999351501465 0,5.2179999351501465 C6.010000228881836,5.2179999351501465 10.5,2.4630000591278076 10.5,0 C10.5,-2.4630000591278076 6.010000228881836,-5.2179999351501465 0,-5.2179999351501465z"></path></g></g><g style="display: none;" transform="matrix(0.6994313597679138,-0.5663883090019226,0.5663883090019226,0.6994313597679138,545.000244140625,357.0000915527344)" opacity="1"><g opacity="0" transform="matrix(1,0,0,1,69.58399963378906,29.555999755859375)"><path fill="rgb(255,236,0)" fill-opacity="1" d=" M179.5,105 C179.5,106.5 186.5,130.5 186.5,130.5 C186.5,130.5 125.5,115 126,116.5 C126.5,118 218,161 218,161 C218,161 208.5,128.5 208.5,128.5 C208.5,128.5 258.5,132.5 258.5,132.5 C258.5,132.5 179.5,103.5 179.5,105z"></path></g><g opacity="0" transform="matrix(1,0,0,1,51.80799865722656,-21.989002227783203)"><path fill="rgb(255,236,0)" fill-opacity="1" d=" M253,27.5 C253,27.5 164.5,44 164.5,44 C164.5,44 202,69 202,69 C202,69 141.5,89.5 141.5,89.5 C141.5,89.5 249.5,77.5 249.5,77.5 C249.5,77.5 207.5,49 207.5,49 C207.5,49 253,27.5 253,27.5z"></path></g></g><g transform="matrix(0,0,0,0,621.3619995117188,385.8900146484375)" opacity="1" style="display: block;"><g opacity="1" transform="matrix(1,0,0,1,95.60399627685547,77.40899658203125)"><path fill="rgb(255,236,0)" fill-opacity="1" d=" M0,-59.909000396728516 C0,-59.909000396728516 14.491000175476074,-32.5359992980957 14.491000175476074,-32.5359992980957 C14.491000175476074,-32.5359992980957 48.270999908447266,-48.46699905395508 48.270999908447266,-48.46699905395508 C48.270999908447266,-48.46699905395508 37.93899917602539,-20.107999801635742 37.93899917602539,-20.107999801635742 C37.93899917602539,-20.107999801635742 78.10299682617188,-18.51300048828125 78.10299682617188,-18.51300048828125 C78.10299682617188,-18.51300048828125 46.895999908447266,0 46.895999908447266,0 C46.895999908447266,0 78.10299682617188,18.51300048828125 78.10299682617188,18.51300048828125 C78.10299682617188,18.51300048828125 37.93899917602539,20.108999252319336 37.93899917602539,20.108999252319336 C37.93899917602539,20.108999252319336 48.270999908447266,48.46799850463867 48.270999908447266,48.46799850463867 C48.270999908447266,48.46799850463867 14.491000175476074,32.5359992980957 14.491000175476074,32.5359992980957 C14.491000175476074,32.5359992980957 0,59.909000396728516 0,59.909000396728516 C0,59.909000396728516 -14.491999626159668,32.5359992980957 -14.491999626159668,32.5359992980957 C-14.491999626159668,32.5359992980957 -48.270999908447266,48.46799850463867 -48.270999908447266,48.46799850463867 C-48.270999908447266,48.46799850463867 -37.93899917602539,20.108999252319336 -37.93899917602539,20.108999252319336 C-37.93899917602539,20.108999252319336 -78.10299682617188,18.51300048828125 -78.10299682617188,18.51300048828125 C-78.10299682617188,18.51300048828125 -46.895999908447266,0 -46.895999908447266,0 C-46.895999908447266,0 -78.10299682617188,-18.51300048828125 -78.10299682617188,-18.51300048828125 C-78.10299682617188,-18.51300048828125 -37.93899917602539,-20.107999801635742 -37.93899917602539,-20.107999801635742 C-37.93899917602539,-20.107999801635742 -48.270999908447266,-48.46699905395508 -48.270999908447266,-48.46699905395508 C-48.270999908447266,-48.46699905395508 -14.491999626159668,-32.5359992980957 -14.491999626159668,-32.5359992980957 C-14.491999626159668,-32.5359992980957 0,-59.909000396728516 0,-59.909000396728516z"></path><path stroke-linecap="butt" stroke-linejoin="miter" fill-opacity="0" stroke-miterlimit="10" stroke="rgb(32,18,85)" stroke-opacity="1" stroke-width="7" d=" M0,-59.909000396728516 C0,-59.909000396728516 14.491000175476074,-32.5359992980957 14.491000175476074,-32.5359992980957 C14.491000175476074,-32.5359992980957 48.270999908447266,-48.46699905395508 48.270999908447266,-48.46699905395508 C48.270999908447266,-48.46699905395508 37.93899917602539,-20.107999801635742 37.93899917602539,-20.107999801635742 C37.93899917602539,-20.107999801635742 78.10299682617188,-18.51300048828125 78.10299682617188,-18.51300048828125 C78.10299682617188,-18.51300048828125 46.895999908447266,0 46.895999908447266,0 C46.895999908447266,0 78.10299682617188,18.51300048828125 78.10299682617188,18.51300048828125 C78.10299682617188,18.51300048828125 37.93899917602539,20.108999252319336 37.93899917602539,20.108999252319336 C37.93899917602539,20.108999252319336 48.270999908447266,48.46799850463867 48.270999908447266,48.46799850463867 C48.270999908447266,48.46799850463867 14.491000175476074,32.5359992980957 14.491000175476074,32.5359992980957 C14.491000175476074,32.5359992980957 0,59.909000396728516 0,59.909000396728516 C0,59.909000396728516 -14.491999626159668,32.5359992980957 -14.491999626159668,32.5359992980957 C-14.491999626159668,32.5359992980957 -48.270999908447266,48.46799850463867 -48.270999908447266,48.46799850463867 C-48.270999908447266,48.46799850463867 -37.93899917602539,20.108999252319336 -37.93899917602539,20.108999252319336 C-37.93899917602539,20.108999252319336 -78.10299682617188,18.51300048828125 -78.10299682617188,18.51300048828125 C-78.10299682617188,18.51300048828125 -46.895999908447266,0 -46.895999908447266,0 C-46.895999908447266,0 -78.10299682617188,-18.51300048828125 -78.10299682617188,-18.51300048828125 C-78.10299682617188,-18.51300048828125 -37.93899917602539,-20.107999801635742 -37.93899917602539,-20.107999801635742 C-37.93899917602539,-20.107999801635742 -48.270999908447266,-48.46699905395508 -48.270999908447266,-48.46699905395508 C-48.270999908447266,-48.46699905395508 -14.491999626159668,-32.5359992980957 -14.491999626159668,-32.5359992980957 C-14.491999626159668,-32.5359992980957 0,-59.909000396728516 0,-59.909000396728516z"></path></g></g><g transform="matrix(0,0,0,0,246.95599365234375,143.22900390625)" opacity="1" style="display: block;"><g opacity="1" transform="matrix(1,0,0,1,101.68699645996094,102.625)"><path fill="rgb(255,255,255)" fill-opacity="1" d=" M72.52200317382812,-73.6520004272461 C72.52200317382812,-73.6520004272461 96.44300079345703,-102.3740005493164 96.44300079345703,-102.3740005493164 C96.44300079345703,-102.3740005493164 46.90399932861328,-79.39099884033203 46.90399932861328,-79.39099884033203 C46.90399932861328,-79.39099884033203 73.02999877929688,-47.58399963378906 73.02999877929688,-47.58399963378906 C73.02999877929688,-47.58399963378906 49.867000579833984,-32.61399841308594 49.867000579833984,-32.61399841308594 C37.83599853515625,-48.720001220703125 19.836999893188477,-60.40299987792969 -1.5169999599456787,-63.93199920654297 C-45.369998931884766,-71.17900085449219 -86.94300079345703,-41.39699935913086 -94.19000244140625,2.4549999237060547 C-101.43699645996094,46.30699920654297 -71.65699768066406,87.87999725341797 -27.80299949645996,95.12799835205078 C16.049999237060547,102.375 57.624000549316406,72.59400177001953 64.87100219726562,28.742000579833984 C67.53399658203125,12.628999710083008 65.18199920654297,-3.1679999828338623 58.986000061035156,-17.075000762939453 C58.986000061035156,-17.075000762939453 101.43699645996094,-44.5099983215332 101.43699645996094,-44.5099983215332 C101.43699645996094,-44.5099983215332 72.52200317382812,-73.6520004272461 72.52200317382812,-73.6520004272461z"></path></g><g opacity="1" transform="matrix(1,0,0,1,83.9749984741211,120.28099822998047)"><path fill="rgb(32,18,85)" fill-opacity="1" d=" M-0.5070000290870667,-47.62799835205078 C-4.730000019073486,-47.62799835205078 -8.571999549865723,-46.930999755859375 -12.034000396728516,-45.53799819946289 C-15.498000144958496,-44.14500045776367 -18.176000595092773,-42.624000549316406 -20.07699966430664,-40.97800064086914 C-21.976999282836914,-39.33100128173828 -23.667999267578125,-37.40999984741211 -25.143999099731445,-35.2140007019043 C-26.62299919128418,-33.018001556396484 -27.5310001373291,-31.476999282836914 -27.868000030517578,-30.59000015258789 C-28.207000732421875,-29.70400047302246 -28.62700080871582,-28.604999542236328 -29.132999420166016,-27.297000885009766 C-29.639999389648438,-25.98699951171875 -29.893999099731445,-24.701000213623047 -29.893999099731445,-23.43400001525879 C-29.893999099731445,-20.562999725341797 -27.361000061035156,-18.1560001373291 -22.29400062561035,-16.214000701904297 C-19.677000045776367,-15.201000213623047 -17.56599998474121,-14.694000244140625 -15.961000442504883,-14.694000244140625 C-14.357999801635742,-14.694000244140625 -13.04699993133545,-15.263999938964844 -12.034000396728516,-16.405000686645508 C-11.020999908447266,-17.54400062561035 -10.133999824523926,-19.209999084472656 -9.375,-21.408000946044922 C-9.375,-21.408000946044922 -8.993000030517578,-22.927000045776367 -8.993000030517578,-22.927000045776367 C-8.656999588012695,-23.940000534057617 -7.749000072479248,-24.933000564575195 -6.269999980926514,-25.905000686645508 C-4.794000148773193,-26.874000549316406 -2.490999937057495,-27.361000061035156 0.6330000162124634,-27.361000061035156 C3.75600004196167,-27.361000061035156 6.099999904632568,-26.60099983215332 7.663000106811523,-25.08099937438965 C9.223999977111816,-23.56100082397461 10.006999969482422,-21.427000045776367 10.006999969482422,-18.68400001525879 C10.006999969482422,-15.939000129699707 8.972000122070312,-13.762999534606934 6.9039998054504395,-12.15999984741211 C4.834000110626221,-10.555000305175781 2.5759999752044678,-9.414999961853027 0.12600000202655792,-8.741000175476074 C-2.322999954223633,-8.064000129699707 -4.583000183105469,-6.670000076293945 -6.651000022888184,-4.559999942779541 C-8.720000267028809,-2.447999954223633 -9.753999710083008,0.421999990940094 -9.753999710083008,4.052000045776367 C-9.753999710083008,4.052000045776367 -9.880000114440918,5.065999984741211 -9.880000114440918,5.065999984741211 C-9.880000114440918,6.75600004196167 -9.817000389099121,8.003000259399414 -9.690999984741211,8.803000450134277 C-9.564000129699707,9.607000350952148 -9.206000328063965,10.512999534606934 -8.61400032043457,11.527000427246094 C-8.024999618530273,12.541000366210938 -6.988999843597412,13.258999824523926 -5.510000228881836,13.680000305175781 C-4.034999847412109,14.104000091552734 -2.069999933242798,14.314000129699707 0.3799999952316284,14.314000129699707 C2.8289999961853027,14.314000129699707 4.791999816894531,14.123000144958496 6.270999908447266,13.743000030517578 C7.747000217437744,13.36299991607666 8.803999900817871,12.729000091552734 9.437000274658203,11.842000007629395 C10.071000099182129,10.956000328063965 10.449999809265137,10.133999824523926 10.57699966430664,9.37399959564209 C10.704000473022461,8.61400032043457 10.765999794006348,7.517000198364258 10.765999794006348,6.080999851226807 C10.765999794006348,6.080999851226807 12.793999671936035,5.447000026702881 12.793999671936035,5.447000026702881 C16.000999450683594,4.264999866485596 19.464000701904297,1.899999976158142 23.18000030517578,-1.6469999551773071 C25.038000106811523,-3.4200000762939453 26.6200008392334,-5.8460001945495605 27.93000030517578,-8.930000305175781 C29.238000869750977,-12.01200008392334 29.893999099731445,-15.368000030517578 29.893999099731445,-19 C29.893999099731445,-26.600000381469727 27.06399917602539,-33.27000045776367 21.408000946044922,-39.01300048828125 C15.748000144958496,-44.755001068115234 8.442999839782715,-47.62799835205078 -0.5070000290870667,-47.62799835205078z M1.3940000534057617,23.940000534057617 C-2.322999954223633,23.940000534057617 -5.046999931335449,24.238000869750977 -6.7769999504089355,24.827999114990234 C-8.508000373840332,25.420000076293945 -9.711999893188477,26.368999481201172 -10.387999534606934,27.677000045776367 C-11.064000129699707,28.988000869750977 -11.46399974822998,30.145999908447266 -11.59000015258789,31.15999984741211 C-11.717000007629395,32.17300033569336 -11.781000137329102,33.652000427246094 -11.781000137329102,35.59400177001953 C-11.781000137329102,35.59400177001953 -11.781000137329102,37.62099838256836 -11.781000137329102,37.62099838256836 C-11.781000137329102,41.084999084472656 -11.064000129699707,43.53200149536133 -9.626999855041504,44.965999603271484 C-7.685999870300293,46.7400016784668 -4.89900016784668,47.62799835205078 -1.2669999599456787,47.62799835205078 C2.36299991607666,47.62799835205078 5.044000148773193,47.35300064086914 6.7769999504089355,46.803001403808594 C8.505000114440918,46.255001068115234 9.793999671936035,45.15700149536133 10.638999938964844,43.5099983215332 C11.482999801635742,41.862998962402344 11.906000137329102,39.35300064086914 11.906000137329102,35.9739990234375 C11.906000137329102,31.246000289916992 11.083000183105469,28.055999755859375 9.437000274658203,26.40999984741211 C7.789999961853027,24.76300048828125 5.109000205993652,23.940000534057617 1.3940000534057617,23.940000534057617z"></path></g></g></g></svg>